<?xml version="1.0" standalone="no"?>
<!DOCTYPE svg PUBLIC "-//W3C//DTD SVG 20010904//EN"
 "http://www.w3.org/TR/2001/REC-SVG-20010904/DTD/svg10.dtd">
<svg version="1.0" xmlns="http://www.w3.org/2000/svg"
 width="1000.000000pt" height="1000.000000pt" viewBox="0 0 1000.000000 1000.000000"
 preserveAspectRatio="xMidYMid meet">
<metadata>
Created by potrace 1.14, written by Peter Selinger 2001-2017
</metadata>
<g transform="translate(0.000000,1000.000000) scale(0.100000,-0.100000)"
fill="#000000" stroke="none">
<path d="M0 9160 c0 -553 3 -840 10 -840 6 0 10 18 10 40 0 33 3 40 20 40 17
0 20 7 20 44 0 25 4 48 10 51 5 3 10 19 10 36 0 16 4 29 9 29 5 0 28 18 52 40
24 22 38 40 31 40 -7 0 -12 15 -12 40 0 36 3 40 25 40 23 0 25 4 25 40 0 29 4
40 15 40 8 0 15 6 15 14 0 7 11 21 25 30 14 9 28 29 32 44 11 46 38 86 71 107
24 15 31 26 28 45 -1 14 -1 19 1 13 9 -27 23 -11 23 25 0 30 6 41 30 57 17 11
30 29 30 41 0 24 30 54 79 79 22 11 30 20 22 24 -14 9 8 31 58 56 23 11 30 19
22 25 -9 5 -5 13 15 29 14 11 30 21 33 21 3 0 11 10 16 22 6 13 24 32 42 43
33 21 42 40 21 47 -19 7 2 28 28 28 16 0 28 8 36 25 6 14 15 25 20 25 4 0 8 7
8 15 0 8 9 15 20 15 12 0 25 10 31 23 6 13 18 27 28 32 49 28 87 53 115 75 17
14 44 31 59 38 15 6 30 19 33 27 4 8 12 15 20 15 8 0 14 5 14 11 0 15 59 69
75 69 6 0 20 9 30 20 10 11 26 22 36 25 11 4 19 13 19 21 0 12 -96 14 -680 14
l-680 0 0 -840z m1145 690 c3 -5 -1 -10 -9 -10 -9 0 -16 5 -16 10 0 6 4 10 9
10 6 0 13 -4 16 -10z"/>
<path d="M8905 9980 c10 -11 26 -22 36 -25 11 -4 19 -12 19 -19 0 -17 37 -49
79 -71 22 -11 30 -20 22 -24 -14 -9 8 -30 54 -54 17 -9 45 -30 63 -47 26 -25
36 -29 47 -20 11 9 16 7 25 -11 9 -17 9 -23 0 -29 -13 -8 -8 -13 45 -40 17 -9
29 -22 29 -33 -1 -9 5 -17 12 -17 8 0 30 -16 50 -35 37 -38 54 -44 54 -20 0 8
4 15 9 15 5 0 14 -7 21 -15 10 -13 9 -15 -9 -15 -30 0 -26 -17 10 -51 34 -32
45 -35 52 -16 2 7 8 8 13 3 5 -5 4 -11 -3 -13 -27 -10 -21 -18 75 -116 17 -18
32 -41 32 -50 0 -9 8 -22 18 -29 18 -14 30 -31 62 -90 23 -42 40 -56 40 -34 0
18 16 21 25 6 3 -5 1 -10 -5 -10 -18 0 -1 -19 43 -47 30 -20 37 -28 25 -31
-20 -4 -13 -31 14 -50 10 -7 18 -21 18 -31 0 -18 18 -41 32 -41 4 0 8 9 8 20
0 16 7 20 30 20 28 0 30 -3 31 -37 0 -21 4 -47 9 -58 5 -11 9 226 9 558 l1
577 -557 0 c-553 0 -556 0 -538 -20z m725 -605 c10 -13 9 -15 -9 -15 -12 0
-21 6 -21 15 0 8 4 15 9 15 5 0 14 -7 21 -15z"/>
<path d="M4255 9690 c-3 -5 -13 -6 -22 -3 -11 4 -14 3 -9 -6 5 -7 17 -9 29 -5
18 5 20 4 9 -7 -10 -10 -19 -11 -45 -1 -41 15 -77 16 -77 2 0 -5 5 -10 10 -10
6 0 10 -4 10 -10 0 -5 -13 -7 -30 -4 -16 4 -36 2 -42 -3 -7 -6 -31 -13 -53
-16 -28 -5 -34 -4 -20 3 11 5 15 9 8 9 -21 2 -43 -11 -43 -25 0 -17 -24 -18
-52 -3 -26 14 -33 6 -13 -14 8 -9 15 -17 15 -19 0 -2 -22 -4 -49 -4 -32 -1
-66 -11 -102 -31 -30 -16 -62 -28 -71 -25 -10 2 -18 0 -18 -4 0 -4 8 -13 18
-20 15 -12 12 -13 -24 -14 -37 0 -64 -13 -64 -32 0 -4 7 -8 16 -8 8 0 12 -5 8
-11 -3 -6 -18 -9 -32 -6 -24 5 -25 4 -9 -8 21 -15 15 -21 -36 -30 -49 -10 -55
-22 -9 -18 20 2 30 0 22 -4 -8 -3 -19 -12 -23 -19 -4 -8 -13 -14 -18 -14 -17
0 -110 -42 -104 -48 2 -3 -3 -11 -13 -18 -16 -12 -15 -13 6 -14 12 0 22 -4 22
-10 0 -5 -11 -10 -24 -10 -14 0 -31 -7 -40 -15 -8 -8 -19 -15 -25 -15 -6 0 -8
-7 -5 -15 4 -10 -4 -19 -22 -27 l-29 -12 28 -4 c31 -4 27 -22 -6 -23 -12 0
-16 -3 -9 -6 6 -2 12 -9 12 -14 0 -6 -4 -7 -10 -4 -5 3 -7 0 -4 -8 6 -16 -17
-29 -61 -34 -16 -2 -33 -7 -38 -12 -5 -5 2 -6 16 -4 26 5 73 -14 62 -25 -6 -7
-10 -8 -36 -11 -6 0 -9 -7 -6 -13 2 -7 -14 -24 -36 -37 -36 -22 -38 -25 -23
-37 15 -10 15 -15 4 -33 -7 -12 -20 -21 -28 -22 -8 0 1 -6 20 -11 34 -11 34
-11 10 -18 -21 -7 -11 -15 13 -11 15 2 6 -17 -15 -33 -16 -12 -18 -16 -5 -12
9 3 17 1 17 -4 0 -6 0 -13 0 -17 0 -5 -6 -8 -12 -8 -7 0 -19 -8 -26 -18 -7 -9
-18 -14 -24 -11 -7 4 -8 2 -4 -4 4 -7 17 -13 29 -13 18 -1 19 -2 4 -6 -11 -3
-16 -10 -13 -20 5 -11 -1 -14 -22 -13 -42 3 -45 1 -32 -15 7 -8 21 -15 31 -15
11 0 19 -7 19 -15 0 -11 8 -13 33 -10 25 4 28 3 12 -4 -11 -5 -16 -10 -12 -10
4 -1 3 -11 -3 -23 -11 -23 -11 -23 9 1 33 36 25 8 -13 -47 -18 -28 -27 -48
-20 -45 11 4 9 -7 -6 -42 -11 -26 -20 -57 -20 -70 0 -13 -4 -27 -10 -30 -5 -3
-10 -14 -10 -23 1 -16 1 -16 11 1 16 27 28 20 20 -11 -9 -31 6 -62 30 -62 8 0
4 -8 -11 -20 -14 -11 -19 -20 -11 -20 11 0 11 -3 1 -15 -15 -18 -7 -19 23 -4
21 12 21 11 5 -8 -10 -11 -18 -27 -18 -36 0 -8 -7 -23 -16 -31 -8 -9 -12 -16
-8 -16 4 0 -1 -7 -12 -15 -16 -13 -16 -14 -1 -9 22 8 23 -18 2 -40 -18 -18
-19 -27 -2 -20 7 2 13 -4 14 -15 1 -11 -6 -22 -15 -26 -14 -5 -14 -7 -2 -16
13 -8 13 -10 1 -18 -8 -5 -12 -18 -8 -30 3 -12 -1 -28 -10 -37 -8 -8 -13 -24
-10 -34 3 -11 1 -23 -4 -26 -6 -3 -9 -13 -8 -22 1 -10 0 -19 -1 -22 -9 -21 -6
-96 3 -102 9 -6 9 -12 1 -25 -12 -20 -12 -142 0 -162 4 -6 3 -18 -3 -25 -6 -7
-9 -15 -6 -17 2 -3 7 -25 10 -49 3 -25 8 -57 11 -72 3 -15 0 -36 -6 -47 -8
-16 -8 -21 3 -21 7 0 13 -8 14 -17 1 -17 5 -47 18 -130 9 -55 36 -186 43 -203
3 -8 4 -18 4 -22 -1 -5 3 -8 9 -8 8 0 8 -4 0 -14 -9 -10 -8 -16 4 -26 8 -7 12
-17 9 -22 -3 -5 -14 -2 -25 8 -17 16 -19 16 -19 1 0 -21 5 -22 -68 8 -155 63
-257 7 -303 -165 -30 -116 -26 -155 30 -288 27 -65 55 -137 61 -162 11 -43
132 -295 151 -315 5 -5 9 -24 9 -42 0 -24 10 -44 37 -74 45 -50 87 -68 164
-70 44 -2 59 -5 55 -15 -3 -7 0 -15 7 -18 9 -3 8 -7 -2 -14 -11 -8 -10 -12 5
-21 11 -6 13 -11 7 -11 -7 0 -13 -5 -13 -11 0 -5 5 -7 10 -4 12 8 13 3 0 -29
-7 -20 -6 -27 8 -35 9 -6 12 -11 6 -11 -20 0 -25 -32 -8 -51 10 -11 13 -23 8
-31 -13 -20 -5 -66 18 -104 15 -25 17 -34 6 -34 -8 0 -9 -3 -2 -8 10 -7 14
-28 14 -79 0 -13 6 -23 13 -23 8 0 7 -3 -3 -10 -12 -8 -12 -10 3 -16 10 -4 16
-13 13 -20 -3 -7 -1 -16 4 -19 4 -3 7 -13 6 -22 -2 -10 5 -24 14 -33 23 -21
43 -70 28 -70 -7 0 -5 -7 5 -17 8 -10 18 -35 22 -55 4 -21 11 -38 16 -38 5 0
9 -9 9 -20 0 -11 5 -20 10 -20 20 0 9 -28 -66 -175 -92 -181 -130 -237 -231
-340 -167 -171 -194 -192 -303 -243 -58 -27 -116 -53 -130 -57 -21 -6 -169
-66 -235 -95 -11 -5 -78 -34 -149 -64 -70 -30 -156 -73 -190 -94 -76 -49 -136
-81 -251 -133 -136 -62 -173 -75 -302 -109 -141 -37 -200 -63 -307 -133 -45
-30 -108 -66 -140 -82 -32 -15 -101 -56 -152 -91 -51 -35 -138 -86 -194 -114
-56 -27 -123 -64 -148 -83 -26 -18 -73 -49 -105 -68 -71 -42 -105 -89 -136
-195 -13 -43 -30 -99 -39 -124 -13 -36 -17 -120 -21 -435 -3 -214 -9 -395 -14
-402 -4 -6 -25 -112 -47 -235 -22 -122 -43 -230 -46 -238 -4 -8 -7 -24 -9 -35
-10 -107 -23 -143 -41 -113 -5 7 -3 8 6 3 10 -6 12 1 8 33 -3 22 -2 44 2 49
11 13 20 84 9 78 -5 -4 -9 6 -10 22 l-1 28 -8 -25 c-6 -16 -7 -6 -3 30 3 30 9
59 14 64 5 6 8 35 8 65 l-2 56 -6 -47 c-9 -66 -21 -71 -21 -10 0 47 -2 52 -22
52 -33 1 -60 25 -62 54 -1 20 -6 26 -23 26 -20 0 -23 5 -23 40 0 29 -4 40 -15
40 -8 0 -15 5 -15 11 0 13 -58 69 -71 69 -5 0 -9 -386 -9 -920 l0 -920 2560 0
c2255 0 2560 2 2560 15 0 8 -29 96 -65 195 -36 99 -104 303 -151 453 -142 453
-297 906 -382 1119 -38 94 -111 285 -158 413 -41 113 -90 240 -104 270 -35 76
-240 648 -240 670 0 5 33 -27 73 -70 80 -88 235 -244 242 -245 3 0 4 -1 3 -3
-2 -2 4 -11 14 -20 9 -9 18 -22 21 -29 2 -7 7 -10 11 -7 18 16 -47 97 -206
257 -181 184 -198 207 -238 341 -25 86 -25 90 3 55 12 -16 54 -61 92 -100 39
-40 90 -96 115 -125 79 -93 91 -100 60 -40 -12 25 -16 42 -10 46 6 3 10 -1 10
-9 0 -9 5 -16 11 -16 7 0 9 9 5 23 -4 12 -9 37 -13 55 -6 37 -23 43 -24 10 l0
-23 -10 23 c-5 13 -12 21 -16 19 -5 -3 -8 7 -9 22 0 15 -13 40 -27 55 -15 16
-27 33 -27 38 0 5 -34 58 -75 119 -41 61 -75 118 -75 127 0 9 -9 25 -19 36
-19 21 -77 122 -106 186 -9 19 -19 37 -23 40 -11 8 -42 79 -42 98 0 13 -2 14
-9 4 -11 -19 -22 24 -15 58 5 24 5 24 -10 6 -14 -17 -15 -16 -9 18 3 22 1 42
-7 51 -7 9 -10 19 -6 22 4 4 11 2 15 -6 5 -7 12 -11 16 -9 9 3 69 -73 84 -107
5 -11 18 -29 30 -39 11 -11 21 -25 21 -33 0 -7 7 -16 15 -19 8 -4 15 -10 15
-15 0 -5 18 -35 40 -67 23 -31 59 -85 81 -120 23 -34 45 -62 50 -62 5 0 9 -6
9 -12 0 -7 20 -42 44 -78 24 -36 42 -68 40 -72 -3 -5 4 -8 16 -8 21 0 20 1 -4
33 -15 19 -26 37 -26 42 0 4 -16 33 -35 65 -19 32 -35 67 -35 79 0 11 -4 21
-8 21 -5 0 -18 18 -31 40 -12 22 -25 40 -29 40 -4 0 -13 12 -19 28 -7 15 -24
41 -39 57 -14 17 -33 43 -41 59 -8 16 -24 38 -34 49 -10 12 -19 24 -19 29 0 4
-13 27 -29 50 -16 24 -27 46 -25 49 2 4 -3 9 -11 13 -8 3 -15 12 -15 19 0 8
-7 20 -16 27 -8 8 -21 27 -28 44 -8 17 -23 41 -34 52 -12 12 -19 24 -16 27 3
3 1 14 -5 26 -6 12 -16 30 -21 41 -5 11 -10 26 -10 34 0 7 -7 19 -16 27 -14
11 -14 13 0 21 18 10 39 1 31 -13 -3 -5 10 -24 29 -44 19 -19 40 -44 46 -55 6
-11 16 -17 22 -14 7 5 8 2 3 -5 -9 -16 63 -93 78 -84 6 4 8 0 4 -10 -4 -11 -2
-14 9 -10 7 3 14 1 14 -5 0 -15 64 -79 87 -86 11 -4 23 -16 26 -27 4 -16 11
-19 29 -14 18 5 19 4 8 -4 -13 -9 -12 -12 5 -25 11 -9 25 -16 32 -16 6 0 36
-24 65 -54 95 -96 227 -194 336 -250 59 -30 140 -78 181 -108 40 -29 88 -63
105 -74 50 -34 148 -135 190 -197 39 -56 53 -71 43 -43 -3 8 -1 17 6 20 7 3 3
4 -7 3 -10 -1 -21 4 -23 11 -3 6 3 12 13 12 16 0 16 1 -1 20 -10 11 -23 17
-29 13 -6 -4 -5 1 3 10 13 16 16 16 38 2 18 -12 28 -13 38 -5 9 8 14 7 19 -5
3 -9 11 -13 16 -10 7 4 8 11 1 18 -6 8 -5 21 4 37 l14 25 1 -30 c1 -29 1 -29
16 -10 8 11 12 30 9 43 -3 12 -1 22 5 22 5 0 10 -6 10 -14 0 -9 8 -12 25 -8
15 2 25 0 25 -8 0 -13 70 26 83 47 4 7 15 13 24 13 9 0 22 8 29 18 13 16 15
16 29 -2 8 -11 18 -16 22 -13 3 4 3 7 -2 7 -4 0 -2 7 5 15 10 12 10 15 -4 15
-9 0 -16 4 -16 10 0 5 18 8 42 6 27 -3 37 -1 27 5 -11 7 -11 9 -1 9 7 0 29 12
47 26 30 22 32 28 20 40 -7 8 -20 14 -27 15 -7 0 -2 4 10 10 13 5 28 7 32 4
11 -7 60 15 60 27 0 13 -18 10 -23 -4 -4 -8 -6 -9 -6 -2 -1 6 6 17 14 24 8 7
15 19 15 26 0 8 5 14 10 14 6 0 8 -11 4 -25 -5 -19 -2 -25 11 -25 12 0 15 5
10 21 -6 19 -4 21 14 16 25 -6 28 8 4 18 -17 6 -17 7 -1 19 10 7 15 16 11 19
-3 4 1 7 10 7 9 0 17 5 17 10 0 6 12 10 27 10 26 0 26 1 10 17 -17 17 -16 18
15 30 l33 12 -35 -3 c-19 -2 -27 -1 -17 1 9 2 17 9 17 14 0 5 3 8 8 8 21 -4
30 3 34 26 4 16 0 25 -11 28 -9 3 -2 5 16 6 17 0 35 6 38 11 4 6 3 10 -2 9
-19 -3 -23 2 -11 15 7 8 16 12 20 10 4 -2 9 0 13 6 4 6 -4 10 -19 10 -33 0
-38 11 -15 34 11 11 19 15 19 10 0 -6 -5 -15 -12 -22 -8 -8 -9 -12 -1 -12 23
0 43 12 43 26 0 8 5 14 10 14 20 0 10 19 -12 23 l-23 4 23 8 c12 4 22 13 22
19 0 6 12 23 28 37 15 13 28 31 30 39 2 8 9 20 16 25 7 6 16 20 20 33 4 12 12
22 17 22 14 0 11 28 -3 33 -8 2 -9 8 -4 13 5 5 11 4 13 -3 7 -20 23 -15 23 7
0 14 7 20 24 20 13 0 26 -3 29 -7 2 -5 2 -2 0 5 -1 8 -3 20 -3 28 0 11 -9 8
-33 -10 l-33 -26 4 30 c2 18 10 30 19 30 10 0 12 6 8 20 -4 12 -2 20 5 20 7 0
10 6 7 14 -3 8 2 16 14 19 11 3 19 14 19 27 0 13 8 29 18 36 11 9 13 13 4 14
-7 0 -10 5 -7 10 4 6 11 7 17 4 7 -5 9 -1 5 9 -3 9 4 27 17 42 13 15 29 51 35
79 6 29 21 63 32 75 11 12 17 26 14 31 -3 6 -1 10 5 10 6 0 9 4 6 9 -3 4 10
26 29 49 22 25 31 43 25 47 -7 4 -7 11 -2 18 5 7 12 24 16 40 3 15 11 27 16
27 6 0 10 18 10 40 0 22 5 40 10 40 6 0 10 6 10 13 0 6 7 25 15 41 19 37 36
108 24 100 -14 -8 -11 8 9 46 9 19 17 57 17 85 0 32 5 54 15 62 10 8 11 15 5
20 -14 11 -17 33 -4 33 7 0 10 12 7 30 -3 17 0 30 5 30 6 0 7 21 4 50 -4 31
-2 48 3 45 6 -3 7 1 4 10 -6 14 -8 14 -20 -2 -12 -17 -13 -17 -8 2 7 30 -10
78 -28 81 -11 1 -14 -4 -11 -17 3 -10 1 -19 -3 -19 -5 0 -9 -20 -9 -45 0 -31
5 -46 15 -49 8 -2 0 -4 -17 -5 -35 -1 -47 -21 -13 -21 21 0 28 -24 10 -35 -8
-5 -7 -11 1 -21 9 -11 9 -18 1 -26 -8 -8 -13 -7 -18 5 -3 9 -10 17 -15 17 -8
0 8 -38 21 -50 9 -8 10 -50 1 -50 -5 0 -8 -17 -7 -37 1 -35 -1 -38 -29 -39
-41 -2 -42 -3 -22 -15 9 -5 17 -20 17 -32 0 -18 -2 -19 -10 -7 -13 19 -13 8 0
-24 6 -17 6 -26 -1 -26 -5 0 -12 6 -15 14 -3 8 -15 17 -27 20 -20 5 -20 6 -2
26 16 17 16 20 2 20 -9 0 -21 8 -26 18 -9 15 -10 15 -11 1 0 -26 -43 -18 -57
11 -10 21 -13 22 -19 7 -8 -21 -26 -12 -22 11 2 10 -4 17 -12 17 -9 0 -14 -7
-12 -18 2 -12 -4 -21 -17 -24 -23 -6 -29 -23 -8 -23 6 0 27 4 45 10 28 8 37 6
55 -11 12 -11 27 -17 34 -15 20 8 20 -58 1 -82 -6 -7 -8 -16 -4 -19 4 -4 11
-1 16 7 8 13 10 13 10 -1 0 -26 -28 -31 -36 -7 -6 19 -7 20 -16 4 -5 -9 -7
-24 -4 -32 3 -8 -1 -14 -10 -14 -11 0 -14 5 -10 16 5 14 1 16 -24 11 -17 -4
-30 -2 -30 3 0 6 5 10 11 10 6 0 9 6 6 14 -3 7 0 19 6 26 9 10 9 11 0 6 -7 -4
-21 -2 -32 4 -13 7 -22 7 -26 0 -12 -19 -22 -10 -21 20 1 19 6 30 15 30 8 0
11 3 7 8 -12 11 -60 8 -73 -5 -15 -14 -17 -33 -3 -33 6 0 10 5 10 10 0 6 7 10
15 10 32 0 8 -35 -29 -41 -11 -2 -21 -10 -24 -18 -3 -10 0 -12 12 -8 10 4 21
-1 28 -13 17 -27 26 -25 20 5 -2 14 0 25 6 25 15 0 23 -15 27 -50 4 -28 2 -30
-23 -24 l-27 7 25 -21 c20 -16 26 -18 28 -6 2 8 8 11 14 8 7 -4 8 -2 4 4 -5 8
2 12 21 11 15 0 22 -3 16 -6 -7 -2 -13 -11 -13 -18 0 -7 -8 -12 -17 -11 -10 0
-19 -9 -23 -24 -5 -21 -11 -24 -36 -22 -16 2 -26 0 -22 -4 4 -4 0 -13 -10 -20
-9 -7 -14 -16 -10 -20 5 -4 16 0 25 8 10 9 27 18 38 20 12 2 21 13 23 26 3 16
10 22 29 22 20 0 24 -4 20 -20 -7 -26 10 -26 18 0 3 11 13 20 21 20 11 0 13
-6 8 -22 -4 -13 -12 -26 -18 -30 -7 -4 -5 -9 6 -13 9 -4 19 -14 22 -22 6 -14
4 -14 -11 -2 -10 8 -31 27 -47 44 -21 20 -28 24 -23 11 10 -26 -12 -94 -24
-75 -7 11 -9 10 -9 -3 0 -11 7 -18 18 -18 14 0 15 -2 2 -10 -10 -6 -16 -6 -18
0 -5 13 -82 13 -82 0 0 -7 13 -8 34 -5 31 6 34 5 34 -19 0 -14 -4 -26 -9 -26
-5 0 -9 7 -9 16 0 9 -7 14 -17 12 -11 -2 -17 -11 -15 -23 2 -19 1 -18 -17 3
-22 26 -31 28 -31 7 0 -8 5 -15 11 -15 5 0 8 -4 5 -9 -8 -12 20 -22 42 -14 16
6 16 6 0 -10 -15 -16 -18 -16 -46 0 -25 14 -34 15 -57 5 -14 -7 -23 -17 -20
-22 3 -6 -4 -14 -17 -19 l-23 -9 25 -11 25 -11 -27 5 c-15 3 -30 0 -34 -6 -4
-8 -9 -7 -15 2 -11 19 -21 6 -23 -30 -1 -27 -16 -58 -16 -34 0 15 -73 14 -82
0 -13 -20 -9 -30 6 -18 10 8 16 9 21 1 3 -5 1 -10 -4 -10 -6 0 -11 -6 -11 -14
0 -14 -23 -28 -50 -30 -8 -1 -14 -7 -12 -14 2 -14 -44 -7 -65 11 -22 17 -15
-18 7 -38 26 -24 26 -39 -2 -24 -18 10 -20 9 -15 -5 7 -17 -8 -22 -18 -6 -12
19 -25 10 -25 -16 l0 -27 -21 27 c-27 35 -35 27 -14 -13 15 -30 11 -39 -10
-23 -6 4 -15 18 -21 32 l-11 25 -7 -22 c-4 -13 -12 -23 -18 -23 -5 0 -8 -7 -5
-14 4 -10 1 -13 -9 -9 -8 3 -14 -1 -14 -8 0 -11 -3 -11 -10 1 -5 8 -9 22 -9
30 0 10 3 8 9 -5 6 -13 9 -15 9 -5 0 8 -6 24 -14 34 -14 19 -15 18 -15 -12 0
-31 -13 -42 -25 -22 -13 21 -21 9 -17 -22 4 -29 3 -31 -10 -20 -9 7 -21 26
-28 42 -17 41 -34 39 -25 -2 3 -18 8 -51 10 -73 3 -28 1 -24 -6 14 -11 53 -27
56 -30 6 -1 -14 -4 -11 -9 10 -18 61 -35 105 -42 105 -13 0 -9 -19 8 -46 9
-13 14 -27 10 -31 -3 -3 -6 0 -6 8 0 12 -2 11 -10 -1 -8 -12 -10 -10 -8 9 2
14 -3 26 -12 29 -12 4 -13 2 -3 -9 6 -8 9 -20 4 -27 -4 -8 -13 -1 -25 19 -11
18 -23 28 -32 25 -9 -3 -14 2 -14 14 0 11 -5 20 -11 20 -6 0 -9 -7 -5 -15 3
-9 0 -15 -9 -15 -8 0 -15 5 -15 10 0 6 -7 10 -15 10 -8 0 -15 5 -15 10 0 20
-38 -9 -43 -32 l-4 -23 -2 23 c-1 23 -26 31 -34 10 -4 -10 -6 -10 -6 0 -1 6
-6 12 -12 12 -6 0 -8 -13 -5 -32 l5 -33 -11 33 c-7 20 -16 31 -24 28 -7 -3
-15 0 -18 7 -2 7 -5 2 -5 -10 -1 -13 -7 -23 -16 -23 -8 0 -15 -6 -16 -12 0 -7
-7 1 -14 17 -7 17 -11 34 -7 39 3 5 9 0 13 -12 5 -12 13 -22 19 -22 5 0 1 15
-9 34 -11 19 -17 37 -13 41 4 4 -5 1 -20 -6 -16 -7 -28 -16 -28 -21 0 -5 -5
-6 -11 -3 -6 5 -4 12 8 21 16 13 14 14 -27 12 -40 -3 -46 0 -58 25 -7 15 -20
27 -28 27 -21 0 -17 -16 11 -38 13 -11 21 -22 18 -26 -3 -3 4 -6 16 -6 14 0
20 -4 15 -11 -3 -6 -19 -9 -35 -5 -15 3 -31 1 -34 -4 -7 -12 -25 -4 -25 11 0
5 7 9 15 9 12 0 12 3 -2 19 -9 11 -21 17 -26 14 -6 -3 -7 -1 -3 5 4 6 -2 20
-13 31 -11 11 -23 16 -26 11 -10 -16 -28 -11 -21 5 3 10 -1 15 -12 16 -10 0
-12 3 -4 6 6 2 12 13 12 24 0 13 -5 17 -17 12 -10 -4 -14 -2 -10 5 4 6 21 13
38 17 l30 7 -27 24 c-14 14 -25 26 -23 27 2 2 13 9 23 17 17 14 18 13 12 -8
-9 -27 -6 -27 38 -2 20 10 38 16 40 11 8 -13 56 -4 76 14 11 10 28 14 46 11
20 -4 31 0 41 14 16 23 35 27 27 6 -6 -17 26 -30 40 -16 7 7 4 10 -10 10 -19
1 -19 1 1 15 11 8 26 19 33 25 9 8 12 7 12 -5 0 -17 9 -19 29 -6 9 6 24 5 39
0 18 -7 28 -6 33 2 6 10 11 10 23 0 13 -11 16 -11 16 3 0 9 5 16 11 16 6 0 8
-9 4 -20 -4 -11 -2 -20 4 -20 6 0 11 9 11 20 0 17 5 19 25 14 14 -3 25 -2 25
4 0 5 13 12 30 15 40 9 80 36 81 56 1 9 4 5 9 -9 6 -20 8 -21 9 -6 1 11 -7 28
-16 38 -9 10 -17 28 -18 40 -2 23 -25 39 -25 18 0 -10 -3 -10 -14 -1 -7 6 -27
11 -42 11 -74 0 -74 0 -74 26 0 28 -12 31 -31 8 -10 -13 -10 -17 2 -25 11 -7
11 -9 1 -9 -8 0 -16 8 -19 19 -5 20 -23 21 -67 3 -16 -7 -31 -11 -33 -8 -9 8
10 57 21 53 6 -2 22 0 36 6 39 15 110 25 116 15 3 -4 11 -5 17 -1 17 11 87 12
87 2 0 -5 -4 -9 -8 -9 -5 0 -9 -7 -9 -15 0 -21 15 -19 29 4 8 14 16 17 24 10
14 -11 94 -1 94 12 0 5 17 9 38 9 27 0 41 -6 51 -21 10 -17 15 -19 21 -8 7 11
17 11 62 0 29 -8 57 -16 62 -19 18 -10 96 -12 96 -2 0 5 -6 9 -12 7 -7 -1 -14
8 -16 21 -2 12 1 22 6 22 6 0 12 7 15 14 4 11 1 13 -10 9 -15 -6 -15 -5 0 17
12 18 14 27 5 37 -8 10 -7 13 6 13 18 0 22 15 6 25 -6 4 -8 11 -5 16 3 5 -1 6
-10 3 -11 -5 -14 -2 -9 10 4 10 13 15 21 12 8 -3 11 -1 8 4 -9 15 -42 12 -49
-5 -6 -16 -37 -10 -33 7 1 5 -8 16 -19 24 -21 15 -22 14 -19 -26 1 -23 8 -47
15 -53 10 -9 11 -7 6 13 -7 24 -7 24 9 5 9 -12 12 -21 5 -23 -16 -6 -12 -22 6
-22 8 0 12 -4 9 -10 -10 -17 -20 -11 -40 22 -11 19 -20 27 -23 19 -3 -8 -9 -6
-19 8 -17 25 -38 28 -29 5 4 -11 2 -15 -8 -11 -8 3 -17 1 -20 -6 -2 -7 -2 2 1
19 3 19 0 35 -7 39 -9 5 -10 1 -5 -14 11 -37 -10 -23 -29 19 -10 22 -24 40
-32 40 -19 0 -18 -16 2 -24 8 -3 12 -11 8 -17 -4 -7 -3 -9 3 -6 6 4 14 -1 17
-10 4 -9 2 -20 -5 -23 -8 -6 -8 -14 2 -31 10 -20 10 -22 -2 -13 -8 6 -29 10
-46 8 -28 -2 -33 1 -34 19 0 21 -1 21 -10 -2 -7 -18 -14 -22 -34 -17 -16 4
-25 2 -25 -5 0 -8 -4 -8 -13 0 -10 8 -17 7 -25 -1 -9 -9 -12 -9 -12 0 0 11
-21 13 -109 13 -18 0 -49 -7 -68 -16 -46 -22 -103 -31 -103 -16 0 6 -7 11 -15
11 -8 0 -25 10 -36 21 -16 16 -23 18 -29 9 -9 -15 -30 -5 -30 15 0 17 23 25
41 14 8 -5 21 -9 29 -9 13 0 13 2 1 9 -12 8 -11 13 10 30 30 25 54 27 45 5 -5
-14 -4 -15 9 -4 12 10 21 10 41 1 23 -10 26 -9 21 4 -4 8 -2 15 2 15 5 0 11
-6 14 -12 2 -7 7 6 11 30 4 23 12 39 17 36 6 -3 7 4 4 19 -4 15 -2 28 6 33 9
5 10 2 5 -11 -6 -18 7 -35 29 -35 6 0 3 5 -5 10 -12 8 -12 12 -2 18 11 7 10
17 -4 51 -9 23 -14 44 -11 47 3 3 11 -12 18 -35 7 -23 15 -41 19 -41 14 0 19
44 8 57 -6 8 -8 16 -4 20 3 3 6 1 6 -6 0 -7 5 -9 10 -6 6 4 8 10 6 14 -3 4 9
9 27 10 67 4 81 8 85 22 3 8 19 33 35 57 25 34 36 42 59 40 16 -1 28 -8 28
-16 0 -7 6 -12 13 -11 26 3 60 -1 54 -7 -7 -7 30 -44 44 -44 4 0 5 9 2 20 -3
11 -10 20 -15 20 -5 0 -6 5 -3 10 4 7 13 3 24 -9 11 -13 25 -18 38 -15 11 3
24 1 27 -5 9 -14 66 -15 66 -1 0 6 -6 10 -14 10 -8 0 -17 7 -20 16 -10 25 -7
28 12 11 14 -13 26 -14 69 -5 29 6 50 14 47 19 -3 5 1 9 8 9 14 0 18 -47 5
-67 -4 -6 -16 -9 -27 -6 -11 3 -20 0 -20 -6 0 -6 6 -11 14 -11 19 0 93 43 95
55 4 18 11 19 11 1 0 -9 5 -14 10 -11 6 4 8 15 5 26 -8 23 10 26 23 4 7 -14
12 -14 36 -2 15 8 26 19 24 23 -2 5 6 10 17 12 11 2 25 9 30 14 7 7 1 9 -17 4
-37 -9 -36 7 2 21 21 8 30 8 34 -1 3 -6 4 -2 1 9 -5 23 3 39 25 48 8 3 3 5
-12 4 -15 -1 -24 -5 -21 -11 4 -5 -3 -7 -15 -4 -12 3 -38 0 -59 -8 -74 -26
-67 -13 11 21 44 19 83 32 87 29 10 -6 59 25 59 38 0 5 -10 0 -22 -12 -12 -11
-26 -20 -31 -20 -6 0 17 28 49 63 103 107 159 231 195 435 15 84 26 123 40
137 15 14 19 16 17 5 -2 -8 -9 -19 -15 -25 -19 -15 -28 -102 -13 -120 18 -22
27 -11 34 45 7 51 13 59 33 39 7 -7 12 -4 16 10 4 15 0 21 -11 21 -14 0 -14 2
-3 9 7 5 11 13 7 19 -3 6 0 13 6 16 7 3 0 4 -17 1 l-30 -5 25 14 c19 11 28 12
39 3 12 -10 14 -9 8 5 -4 12 -2 15 7 12 17 -6 27 -74 11 -74 -5 0 -2 -7 8 -14
9 -7 17 -22 17 -33 0 -11 3 -23 7 -27 11 -10 13 -67 2 -61 -4 3 -3 -9 2 -27 6
-18 15 -48 20 -65 8 -27 15 -33 37 -33 19 0 23 3 13 9 -11 7 -9 10 8 16 23 7
23 8 25 80 1 42 5 51 26 62 24 12 25 13 3 13 -22 0 -28 12 -25 51 1 10 -8 16
-26 18 -15 1 -42 2 -60 4 -22 1 -31 6 -27 15 3 8 5 20 5 27 0 14 55 30 95 27
19 -1 19 0 3 12 -24 18 -23 32 4 39 24 7 35 -4 43 -43 3 -14 13 -49 23 -79 10
-35 15 -79 13 -120 -1 -36 -4 -88 -5 -116 -2 -64 -6 -75 -33 -102 -13 -12 -23
-26 -23 -32 0 -5 -5 -11 -11 -13 -7 -2 -10 -10 -8 -17 4 -10 16 -5 41 18 34
29 46 55 52 114 8 66 19 107 32 118 11 9 14 8 14 -5 0 -9 3 -16 8 -16 12 0 34
143 39 250 5 95 -10 205 -27 195 -5 -3 -13 2 -18 11 -13 24 -51 12 -95 -31
-27 -26 -43 -35 -57 -30 -15 5 -18 3 -14 -8 3 -9 -4 -21 -15 -29 -12 -8 -24
-29 -27 -46 -4 -18 -10 -32 -15 -32 -5 0 -9 -6 -9 -14 0 -20 -17 -29 -26 -15
-5 8 -3 9 5 5 9 -6 11 2 5 31 -3 21 -7 40 -7 43 -1 3 7 20 17 38 9 19 15 37
11 40 -3 3 -8 -3 -11 -15 -4 -13 -11 -20 -20 -16 -9 3 -14 -2 -14 -16 0 -12
-6 -20 -12 -18 -8 1 -14 -12 -16 -33 l-4 -35 -13 25 c-12 22 -11 28 8 55 12
16 24 32 27 35 18 16 37 60 38 93 2 33 -1 40 -20 45 -20 5 -20 6 -3 12 11 4
20 18 22 36 2 16 6 36 10 44 7 19 10 26 19 69 5 25 4 32 -4 27 -8 -5 -12 0
-12 13 0 12 4 21 9 21 13 0 23 112 11 124 -8 8 -13 7 -19 -2 -7 -11 -9 -11
-14 1 -3 9 0 21 8 27 10 8 14 8 18 -2 4 -10 6 -10 6 1 1 21 -29 51 -44 44 -9
-3 -13 2 -12 16 2 24 2 24 29 10 19 -10 19 -9 -2 19 -12 17 -20 36 -17 44 4
10 6 9 6 -2 1 -8 11 -21 23 -29 l22 -14 -18 28 c-17 25 -17 27 -2 22 10 -4 15
-3 11 3 -3 6 -13 10 -21 10 -8 0 -12 5 -9 11 4 6 13 8 21 5 8 -3 14 1 14 10 0
8 -11 19 -24 24 -13 5 -29 17 -34 27 -6 10 -13 15 -17 12 -3 -4 -21 8 -39 27
-18 19 -36 34 -40 34 -13 0 -5 -25 15 -46 22 -24 19 -44 -8 -44 -13 0 -14 2
-2 17 12 15 12 16 -3 10 -11 -4 -18 -2 -18 6 0 6 -7 1 -16 -12 -16 -23 -16
-24 6 -41 13 -9 20 -22 16 -28 -3 -6 0 -12 6 -15 7 -2 9 -8 5 -13 -10 -10 -28
16 -20 30 4 5 1 6 -7 1 -7 -4 -16 -2 -20 5 -4 7 -13 9 -19 6 -7 -5 -1 -16 17
-32 l27 -25 -32 6 c-21 4 -33 3 -33 -4 0 -6 7 -11 15 -11 8 0 15 -4 15 -10 0
-5 -11 -10 -25 -10 -14 0 -25 -4 -25 -10 0 -5 7 -10 16 -10 8 0 12 -5 8 -11
-3 -6 -3 -14 2 -18 10 -7 44 -93 51 -131 3 -14 12 -30 20 -37 11 -9 12 -16 4
-31 -7 -13 -7 -22 -1 -24 5 -2 12 -30 15 -63 3 -32 10 -64 15 -70 6 -7 7 -14
4 -17 -9 -9 18 -88 30 -88 7 0 6 -4 -2 -8 -7 -5 -14 -23 -15 -40 -1 -18 -7
-32 -13 -32 -7 0 -15 -11 -18 -24 -7 -27 -61 -52 -80 -37 -6 5 -25 12 -43 15
-17 4 -38 14 -45 23 -12 15 -10 16 16 9 26 -6 27 -6 12 9 -20 21 -20 25 2 41
25 19 -2 36 -36 23 -18 -7 -29 -6 -36 2 -8 9 -7 11 4 7 9 -3 24 0 35 8 10 8
13 14 7 14 -7 0 -12 6 -12 14 0 8 -4 17 -9 20 -5 3 -8 -2 -7 -11 0 -9 -6 -18
-14 -20 -13 -4 -13 -3 0 7 13 10 12 11 -3 6 -10 -3 -27 -1 -38 5 -11 6 -25 8
-32 6 -7 -2 4 -12 23 -21 34 -16 35 -16 5 -11 -95 17 -108 18 -101 7 3 -5 0
-13 -6 -16 -7 -3 -3 -3 10 0 12 3 22 1 22 -3 0 -16 -24 -33 -44 -32 -18 1 -17
2 4 9 15 5 19 8 8 9 -9 1 -18 11 -20 23 -2 14 -13 25 -28 29 -18 6 -12 7 22 6
26 0 51 2 54 6 4 4 -10 7 -32 8 -124 3 -141 9 -97 33 15 8 21 15 13 15 -8 0
-26 -6 -40 -14 -30 -17 -96 -19 -106 -3 -5 8 0 9 17 5 23 -6 23 -6 4 9 -13 10
-30 12 -50 8 -39 -9 -118 -5 -125 6 -3 5 -21 1 -40 -8 -23 -11 -35 -13 -37 -5
-3 9 -17 8 -51 -3 -56 -17 -52 -16 -52 -4 0 6 7 10 16 10 8 0 13 4 10 9 -7 10
-57 -11 -95 -41 -19 -14 -27 -16 -38 -6 -8 6 -12 17 -9 24 6 17 -13 14 -33 -4
-11 -10 -16 -11 -21 -1 -12 18 -29 2 -24 -24 3 -16 1 -14 -10 8 -14 27 -15 28
-16 8 0 -13 -6 -23 -12 -24 -7 -1 -27 -2 -45 -4 -47 -4 -66 -13 -60 -29 8 -21
-4 -28 -18 -9 -12 16 -35 11 -35 -8 0 -6 4 -7 10 -4 6 3 10 2 10 -4 0 -5 12
-12 28 -14 15 -2 -51 -4 -145 -5 -148 -1 -173 1 -173 14 0 11 6 13 20 9 16 -5
20 -2 19 17 0 13 -3 17 -6 11 -7 -20 -20 -15 -28 10 l-7 22 -6 -23 -7 -24 -28
26 c-19 17 -27 21 -27 11 0 -21 -18 -19 -23 3 -4 16 -5 16 -6 0 0 -10 -6 -18
-11 -18 -6 0 -10 6 -9 13 6 36 -43 67 -53 35 -3 -9 -9 -8 -22 5 -21 21 -33 23
-16 2 22 -27 2 -28 -24 -2 -21 21 -32 24 -65 20 -25 -3 -38 -10 -34 -16 4 -7
0 -8 -13 -3 -10 5 -28 10 -39 13 -17 4 -17 3 -5 -6 12 -9 9 -10 -12 -5 -18 4
-28 2 -28 -5 0 -7 -7 -7 -25 1 -25 11 -24 34 2 24 8 -3 11 -1 8 4 -4 6 -22 8
-43 4 -46 -8 -65 -24 -32 -25 18 -1 20 -3 7 -6 -21 -6 -87 15 -87 28 0 13 -37
11 -46 -2 -3 -6 -17 -8 -30 -5 -14 4 -24 2 -24 -4 0 -5 8 -10 18 -11 11 0 13
-2 4 -6 -8 -3 -33 2 -57 12 -46 17 -92 17 -87 0 2 -5 12 -9 23 -8 28 4 23 -14
-6 -19 -14 -3 -25 -1 -25 4 0 5 -9 4 -19 -2 -13 -7 -22 -7 -26 0 -3 5 3 10 14
10 12 0 21 4 21 9 0 5 -14 7 -30 6 -27 -2 -30 0 -24 17 4 13 2 18 -4 14 -6 -3
-14 -1 -17 5 -4 6 2 13 14 16 22 6 27 18 11 28 -16 10 -12 47 8 61 11 9 13 13
4 14 -7 0 -10 5 -7 10 4 6 12 5 21 -4 15 -16 44 -11 44 6 0 6 -7 8 -14 5 -10
-4 -13 -1 -10 8 3 7 15 15 26 18 11 3 18 11 16 18 -7 21 -26 21 -46 1 -20 -20
-72 -35 -72 -21 0 5 9 9 20 9 11 0 24 8 28 18 4 9 16 17 27 17 11 0 19 6 17
13 -2 14 14 16 23 2 3 -5 16 -10 28 -10 20 0 20 1 2 13 -13 10 -15 16 -6 21 6
4 9 12 6 17 -4 5 2 12 12 16 10 4 26 16 36 28 13 14 20 16 23 8 10 -24 24 -13
24 17 0 17 -5 30 -11 30 -8 0 -8 4 0 14 6 7 9 21 5 30 -7 18 20 23 31 6 11
-18 27 -11 22 10 -5 21 11 27 28 11 6 -6 15 -3 24 6 12 13 11 14 -7 9 -20 -7
-21 -4 -16 23 7 33 -3 40 -25 19 -11 -11 -12 -9 -7 9 5 16 2 23 -11 26 -10 3
1 5 25 6 30 1 41 -3 36 -10 -4 -7 -1 -10 6 -7 26 8 22 28 -7 34 -29 6 -39 28
-22 49 5 7 -6 11 -32 12 -33 2 -39 -1 -39 -18 0 -11 -4 -18 -10 -14 -5 3 -7
12 -4 19 3 8 1 17 -5 21 -6 3 -11 14 -11 23 1 16 2 16 14 0 18 -25 24 -22 18
7 -2 14 -9 25 -14 25 -7 0 -6 5 1 13 8 10 7 17 -1 25 -17 17 -28 15 -28 -4 0
-8 -4 -12 -10 -9 -6 4 -3 16 7 31 14 22 14 27 2 35 -12 8 -11 12 5 24 18 14
18 15 -8 24 -30 12 -36 25 -6 16 11 -4 20 -2 20 4 0 6 -4 11 -9 11 -19 0 14
68 39 78 23 10 23 11 -9 6 -23 -4 -31 -3 -27 5 4 6 14 11 21 11 8 0 22 11 31
24 9 15 21 22 30 19 9 -3 14 2 14 16 0 12 6 21 13 22 6 0 30 1 52 2 37 2 40 4
37 27 -3 20 -1 23 9 13 17 -17 29 -16 29 2 0 17 16 20 25 4 5 -7 15 -5 30 5
17 11 26 13 31 5 5 -8 10 -6 16 5 7 12 14 14 27 6 14 -7 22 -6 31 5 7 8 29 15
50 15 21 0 43 7 50 15 7 8 16 13 20 10 5 -3 11 1 14 7 5 10 7 10 12 1 8 -19
37 -16 30 2 -9 25 2 17 17 -11 l14 -27 6 25 c6 21 11 24 36 20 27 -4 29 -2 24
19 -4 19 -3 21 6 9 6 -8 11 -25 11 -38 0 -13 4 -20 10 -17 6 3 10 15 10 26 0
10 3 19 6 19 12 0 35 -31 29 -40 -3 -5 1 -10 9 -10 8 0 18 5 21 10 4 7 12 7
25 0 26 -14 33 -13 26 5 -3 9 0 15 9 15 8 0 15 5 15 11 0 8 6 7 17 -2 15 -13
15 -12 5 8 -7 12 -12 28 -11 35 0 7 4 3 9 -9 5 -13 14 -23 20 -23 6 0 8 -4 5
-10 -3 -5 -1 -10 5 -10 6 0 13 6 16 14 6 16 44 17 45 1 0 -5 7 4 15 20 l14 30
-2 -29 c-2 -17 2 -31 10 -34 7 -2 12 0 11 5 -4 23 3 41 17 47 13 5 15 1 9 -21
-6 -24 -5 -25 11 -12 13 10 18 11 21 2 2 -7 11 -9 19 -6 10 3 14 -2 14 -18 1
-21 3 -20 15 9 14 33 35 36 35 6 0 -8 5 -12 10 -9 6 4 8 16 5 28 -5 18 -4 19
4 7 9 -12 13 -12 19 -2 6 9 13 7 30 -8 20 -19 26 -18 24 2 -1 3 5 9 14 12 10
4 13 2 8 -6 -5 -8 2 -9 25 -5 26 6 29 4 19 -7 -7 -8 -17 -11 -23 -8 -5 2 -5
-1 2 -8 9 -10 15 -10 26 -2 8 7 16 9 20 6 3 -3 8 3 11 14 4 11 13 23 21 26 9
3 12 0 8 -10 -3 -7 -10 -14 -16 -14 -6 0 -8 -3 -5 -6 4 -3 15 -1 25 4 15 9 19
7 19 -9 0 -10 -7 -19 -16 -20 -8 0 -10 -3 -4 -5 7 -3 39 4 73 16 60 20 94 26
56 10 -18 -8 -17 -9 8 -9 18 -1 26 -5 21 -12 -4 -7 -3 -10 2 -7 5 2 23 10 39
17 17 7 37 17 45 22 32 19 44 22 47 12 2 -5 15 -8 28 -5 14 2 22 8 19 13 -3 5
2 9 11 9 9 0 13 -5 9 -11 -7 -12 53 -3 71 11 22 16 101 19 130 4 20 -10 31
-11 35 -4 5 8 16 6 36 -4 16 -8 42 -18 57 -21 16 -3 25 -10 21 -16 -3 -6 -13
-8 -23 -5 -12 5 -11 2 3 -9 11 -8 25 -15 30 -15 6 0 5 4 -3 9 -11 7 -11 9 0
13 7 2 21 -4 31 -14 23 -23 43 -14 56 25 6 19 11 24 10 12 -1 -34 2 -41 11
-26 6 9 8 2 7 -20 -2 -33 -3 -34 -43 -34 -23 0 -45 -4 -50 -9 -5 -5 -3 -6 5
-2 7 4 12 1 12 -8 0 -9 5 -16 11 -16 5 0 8 4 4 9 -3 5 -1 12 5 16 5 3 10 2 10
-4 0 -5 3 -17 7 -27 4 -11 3 -15 -4 -11 -6 4 -14 0 -17 -9 -9 -23 -8 -26 6
-18 8 5 9 2 5 -9 -4 -10 -1 -17 5 -17 6 0 8 -3 5 -7 -4 -4 -21 3 -37 15 -34
26 -40 27 -40 8 0 -8 11 -17 25 -20 14 -4 25 -11 25 -16 0 -5 12 -22 26 -37
14 -15 29 -34 34 -43 5 -8 11 -12 14 -9 4 3 -5 23 -19 44 -26 38 -25 66 1 31
19 -27 18 -6 -2 22 -19 28 -5 29 25 1 28 -27 32 -22 15 19 -9 21 -21 32 -34
32 -11 0 -20 5 -20 10 0 12 43 3 83 -17 19 -10 27 -19 23 -30 -4 -10 -2 -13 8
-10 9 4 13 1 10 -6 -7 -19 45 -69 65 -63 13 5 12 3 -3 -8 -10 -8 -15 -20 -11
-26 4 -6 13 -2 25 12 16 19 19 20 20 6 0 -9 -4 -19 -9 -23 -15 -8 -6 -54 13
-73 17 -16 18 -16 12 4 -3 11 1 35 10 53 12 23 13 35 5 45 -6 7 -8 16 -4 19 3
4 -5 15 -18 26 -26 22 -20 27 12 10 19 -10 19 -9 9 10 -6 12 -16 21 -23 22 -7
0 -3 4 8 9 l20 9 -20 0 c-11 1 -16 4 -10 9 13 9 13 62 0 82 -5 8 -10 18 -10
22 0 3 -10 18 -22 31 -14 17 -18 28 -11 35 13 13 0 35 -16 29 -7 -3 -13 1 -13
9 0 8 4 14 9 14 5 0 6 5 3 10 -3 6 -1 10 4 10 6 0 11 7 11 16 0 8 -4 12 -10 9
-17 -10 -34 6 -19 17 10 7 8 8 -9 5 -12 -3 -20 -1 -16 4 3 5 19 9 35 9 18 0
28 4 24 10 -3 6 -15 10 -26 10 -10 0 -19 4 -19 10 0 5 -14 7 -32 4 -27 -5 -30
-3 -18 6 12 9 10 10 -12 6 -23 -5 -28 -3 -28 13 0 11 7 24 16 29 17 9 25 67
24 155 -1 54 -64 240 -106 315 -64 111 -148 222 -160 209 -3 -3 2 -18 11 -34
l17 -28 -29 31 c-16 16 -35 28 -41 26 -7 -2 -12 3 -12 12 0 9 -3 16 -7 16 -5
0 -32 23 -61 51 -29 27 -52 46 -51 42 3 -18 -2 -28 -9 -17 -9 14 -243 147
-259 147 -7 0 -10 4 -7 8 2 5 12 6 22 3 15 -5 15 -5 -1 6 -9 6 -22 8 -27 5 -6
-3 -10 -2 -10 3 0 10 -82 42 -108 42 -28 0 26 -34 143 -92 43 -22 133 -76 152
-93 6 -5 35 -30 65 -55 69 -58 219 -208 238 -238 8 -13 25 -38 38 -55 44 -61
21 -49 -27 14 -56 73 -136 154 -106 107 9 -15 13 -33 9 -39 -4 -7 -3 -9 3 -6
6 4 18 -2 28 -13 20 -22 7 -28 -14 -7 -11 10 -12 8 -3 -9 6 -12 9 -24 6 -27
-3 -3 5 -3 18 0 18 4 20 3 8 -6 -8 -6 -10 -11 -4 -11 13 0 33 -46 32 -72 -1
-9 -5 -15 -10 -12 -5 3 -6 10 -3 15 4 5 1 17 -5 26 -11 17 -11 17 -6 0 4 -12
2 -17 -6 -14 -7 2 -12 15 -10 28 1 16 -1 20 -6 11 -6 -9 -20 2 -48 37 -21 28
-45 48 -52 46 -6 -2 -27 9 -46 25 l-34 30 -6 -25 c-8 -32 -17 -32 -38 3 -10
15 -18 22 -18 15 0 -11 24 -43 83 -107 9 -11 17 -24 17 -28 0 -5 4 -7 9 -4 5
3 12 -1 15 -10 10 -25 7 -26 -16 -4 -12 11 -27 19 -32 17 -10 -3 -64 53 -58
60 1 2 -6 11 -15 21 -10 10 -31 33 -46 51 -30 37 -50 36 -23 -1 52 -72 87
-131 83 -141 -2 -7 -14 6 -25 28 -20 36 -21 37 -16 10 4 -17 3 -26 -2 -22 -5
5 -10 18 -11 30 -2 37 -15 67 -25 61 -5 -3 -7 -13 -4 -23 5 -14 4 -13 -8 2 -7
9 -18 17 -25 17 -6 0 -10 3 -9 8 1 4 -17 26 -40 50 -32 33 -39 37 -30 17 6
-14 15 -25 20 -25 4 0 7 -3 5 -8 -2 -8 16 -32 46 -60 21 -20 22 -29 2 -29 -8
0 -15 4 -15 9 0 4 -7 8 -15 8 -13 0 -19 11 -17 31 1 3 -5 6 -13 6 -11 0 -9 -9
6 -38 21 -42 24 -59 10 -59 -5 0 -8 8 -7 18 0 9 -4 16 -11 15 -6 -1 -17 5 -25
14 -9 12 -9 15 0 9 18 -11 15 3 -9 32 -21 27 -21 27 -14 3 6 -20 2 -18 -26 14
-30 34 -108 100 -214 180 -22 17 -56 37 -75 44 -56 22 -57 31 -2 17 27 -8 56
-17 64 -21 7 -3 5 0 -5 8 -13 11 -15 17 -6 22 6 4 15 1 20 -6 5 -8 9 -11 9 -6
0 4 8 0 18 -8 76 -67 160 -120 171 -109 3 3 -2 11 -13 18 -10 6 -37 29 -61 51
-49 47 -97 85 -106 85 -5 0 -14 21 -19 50 -1 3 -9 14 -18 24 -16 18 -16 18 6
7 12 -6 22 -16 22 -22 0 -6 10 -9 23 -8 29 3 59 -10 75 -33 7 -10 27 -21 45
-26 18 -5 32 -15 32 -23 0 -14 24 -20 26 -6 2 25 -149 157 -180 157 -7 0 -10
4 -7 9 3 5 31 -5 63 -22 31 -16 52 -24 47 -16 -4 8 -9 21 -11 29 -1 13 0 13
10 -1 7 -8 35 -30 62 -49 28 -18 79 -58 114 -89 193 -168 227 -195 181 -146
-25 26 -60 61 -77 77 -18 16 -32 33 -32 36 4 24 -3 42 -15 42 -7 0 -22 12 -32
26 -10 14 -50 44 -88 66 -64 38 -91 56 -121 85 -7 7 -16 9 -19 5 -4 -3 -10 -1
-14 5 -8 13 -132 56 -140 49 -2 -3 -18 4 -35 16 -18 13 -32 18 -34 11 -2 -6
-25 1 -56 17 -29 14 -62 29 -74 32 -26 7 -32 -7 -8 -16 8 -3 14 -11 13 -17 -2
-7 32 -30 75 -51 43 -22 77 -41 75 -43 -6 -6 -74 19 -92 34 -9 7 -16 11 -16 7
0 -6 -29 16 -61 46 -9 9 -28 18 -40 20 -12 2 -24 9 -27 16 -3 9 3 11 22 6 14
-3 26 -3 26 0 0 9 -71 36 -81 31 -5 -3 -38 10 -75 29 -37 20 -70 33 -75 30 -5
-3 -15 -2 -21 3 -23 14 -37 11 -32 -5 3 -10 -1 -7 -8 5 -10 16 -17 20 -28 13
-10 -7 -11 -10 -2 -10 6 0 12 -5 12 -12 0 -6 -7 -5 -18 5 -12 11 -43 19 -93
22 -41 3 -85 6 -99 7 -16 2 -24 -2 -22 -10 1 -8 -2 -11 -7 -7 -6 3 -7 13 -4
22 5 13 2 15 -19 10 -14 -4 -45 0 -68 8 -50 18 -47 17 -55 5z m5 -60 c13 -8
13 -10 -2 -10 -9 0 -20 5 -23 10 -8 13 5 13 25 0z m254 -12 c-3 -5 -12 -4 -20
3 -19 16 -18 18 6 12 11 -3 17 -9 14 -15z m49 2 c12 -18 15 -19 21 -5 5 13 9
12 27 -6 23 -23 18 -39 -7 -19 -13 12 -17 11 -25 -1 -6 -10 -9 -10 -9 -1 0 6
-3 11 -7 11 -5 -1 -15 -1 -23 0 -13 1 -13 2 0 11 13 9 13 11 0 20 -9 6 -10 10
-3 10 6 0 18 -9 26 -20z m-237 -45 c17 -16 14 -18 -10 -9 -9 3 -16 10 -16 15
0 13 9 11 26 -6z m192 3 c7 -7 12 -16 12 -20 0 -13 -28 -9 -34 5 -5 10 -7 10
-12 0 -3 -7 -15 -13 -25 -13 -11 0 -17 5 -14 10 4 6 -8 11 -27 12 -23 1 -16 3
22 8 30 4 57 7 61 8 3 1 10 -3 17 -10z m146 -4 c4 -10 1 -14 -6 -12 -15 5 -23
28 -10 28 5 0 13 -7 16 -16z m-384 -4 c0 -5 -4 -10 -10 -10 -5 0 -10 5 -10 10
0 6 5 10 10 10 6 0 10 -4 10 -10z m515 -8 c-3 -3 -11 0 -18 7 -9 10 -8 11 6 5
10 -3 15 -9 12 -12z m-268 -54 c-9 -6 -9 -8 1 -8 6 0 12 -8 12 -17 0 -15 2
-14 15 3 13 17 12 21 -6 37 -12 9 -17 17 -12 17 17 0 45 -37 34 -45 -6 -3 -11
-11 -11 -16 0 -6 5 -7 10 -4 6 3 10 1 10 -4 0 -18 -35 -7 -68 21 -17 14 -37
28 -44 31 -10 4 -10 8 2 16 10 7 22 5 42 -7 19 -11 24 -18 15 -24z m163 -15
c0 -2 -13 3 -30 12 -16 9 -30 20 -30 26 0 5 14 0 30 -13 17 -12 30 -23 30 -25z
m100 -3 c8 -5 11 -12 7 -16 -4 -4 -15 0 -24 9 -18 18 -8 23 17 7z m164 -25
c11 -8 18 -17 15 -19 -2 -3 -15 4 -29 14 -14 11 -20 20 -15 19 6 0 19 -6 29
-14z m211 -15 c3 -6 3 -10 -2 -10 -11 1 -43 26 -43 34 0 9 37 -11 45 -24z
m-769 4 c19 -15 19 -15 -1 -6 -11 5 -27 12 -35 15 -13 5 -13 6 1 6 8 1 24 -6
35 -15z m-161 -12 c-3 -3 -11 0 -18 7 -9 10 -8 11 6 5 10 -3 15 -9 12 -12z
m398 -10 c16 -17 23 -32 18 -40 -6 -10 -11 -9 -22 4 -8 9 -13 20 -11 23 1 3
-5 14 -13 24 -24 28 -1 19 28 -11z m606 -15 c0 -9 -2 -9 -6 1 -8 21 -25 13
-19 -10 l6 -23 -11 23 c-7 12 -17 22 -23 22 -6 0 -4 4 3 9 18 11 51 -4 50 -22z
m-634 3 c3 -6 -1 -7 -9 -4 -18 7 -21 14 -7 14 6 0 13 -4 16 -10z m432 -75 c20
-19 31 -35 25 -35 -6 0 -15 6 -19 13 -4 6 -20 18 -35 26 -16 8 -28 18 -28 23
0 17 22 7 57 -27z m213 -16 c0 -14 -5 -11 -31 17 l-24 27 28 -18 c15 -9 27
-21 27 -26z m-94 17 c10 -8 17 -17 14 -19 -3 -3 -16 3 -29 14 -27 22 -15 26
15 5z m-351 -6 c13 -6 15 -9 5 -9 -8 0 -22 4 -30 9 -18 12 -2 12 25 0z m-380
-10 c8 -13 -5 -13 -25 0 -13 8 -13 10 2 10 9 0 20 -4 23 -10z m743 -70 c7 0
12 -4 12 -10 0 -5 -4 -10 -8 -10 -10 0 -52 38 -52 47 0 3 8 -1 18 -10 10 -10
24 -17 30 -17z m-492 -35 c10 -8 15 -14 9 -14 -5 0 -19 6 -29 14 -11 8 -15 15
-10 15 6 0 19 -7 30 -15z m69 -5 c3 -5 -4 -6 -15 -3 -11 3 -22 9 -25 13 -3 5
4 6 15 3 11 -3 22 -9 25 -13z m170 -80 c4 0 2 7 -5 15 -10 12 -10 15 4 15 9 0
16 -4 16 -10 0 -5 7 -10 15 -10 8 0 15 -4 15 -8 0 -12 50 -33 61 -27 5 4 9 2
9 -4 0 -5 17 -15 38 -22 20 -6 58 -22 83 -35 26 -13 50 -20 54 -16 5 4 6 3 3
-3 -3 -5 5 -18 18 -28 14 -10 24 -13 24 -7 0 12 43 3 48 -10 2 -4 11 -6 20 -3
11 2 43 -20 87 -60 72 -66 145 -157 126 -157 -6 0 -11 5 -11 10 0 15 -168 178
-200 194 -8 4 -6 0 4 -8 26 -21 12 -21 -20 0 -22 15 -24 15 -18 1 6 -17 58
-47 80 -47 21 0 25 -17 7 -31 -10 -8 -14 -9 -10 -2 4 6 3 14 -3 18 -5 3 -10 2
-10 -4 0 -6 -16 -1 -35 10 -19 12 -35 25 -35 31 0 5 -4 7 -9 4 -5 -4 -11 -1
-13 5 -5 16 -58 19 -58 3 0 -13 12 -18 32 -15 4 0 5 -6 2 -14 -5 -11 -2 -14
12 -9 11 4 16 4 12 -1 -4 -4 0 -15 10 -22 9 -8 -1 -5 -22 7 -38 21 -74 21 -61
-1 4 -6 13 -8 21 -5 7 3 16 0 20 -6 4 -6 3 -9 -2 -6 -5 3 -15 -1 -23 -9 -12
-13 -11 -14 8 -8 28 9 62 -19 54 -43 -4 -10 -3 -14 1 -10 9 7 44 -22 44 -36 0
-5 4 -12 9 -15 4 -3 17 -17 28 -30 l20 -24 -20 12 c-11 7 -31 28 -45 46 -14
18 -27 32 -30 32 -9 -3 -150 96 -150 105 0 13 16 9 30 -7 14 -17 35 -21 25 -5
-3 5 -40 26 -81 45 -43 19 -73 39 -69 45 3 5 -1 10 -9 10 -21 0 -20 -16 1 -24
14 -6 15 -9 4 -15 -10 -7 -8 -12 9 -24 11 -8 46 -38 76 -67 30 -29 57 -50 59
-48 3 2 -27 33 -66 67 -38 35 -68 65 -66 68 5 4 77 -36 77 -44 0 -2 -5 -1 -12
3 -6 4 23 -27 65 -68 70 -69 95 -100 66 -82 -6 3 -15 1 -19 -5 -5 -8 -12 -4
-24 13 -16 26 -44 38 -30 14 6 -10 4 -10 -8 0 -11 9 -18 10 -23 2 -8 -13 -25
-13 -25 1 0 5 4 8 9 5 5 -3 14 1 21 9 7 8 11 15 9 16 -25 5 -49 4 -49 -3 0 -5
-6 -4 -12 2 -7 6 -24 19 -36 30 -13 10 -21 24 -17 30 4 6 13 2 25 -12 14 -17
22 -20 30 -12 8 8 -2 19 -37 42 -46 30 -78 35 -39 6 11 -7 17 -17 13 -20 -4
-4 -13 -1 -21 5 -8 7 -20 10 -25 6 -14 -8 -72 36 -64 49 3 6 3 8 -2 4 -4 -4
-34 7 -66 24 -40 21 -55 34 -46 40 6 4 9 8 5 8 -3 0 -14 3 -24 7 -12 4 -15 3
-10 -5 8 -13 -10 -8 -52 14 -22 11 -22 12 -2 17 20 5 114 -26 138 -45 9 -8 16
-8 24 0 8 8 17 8 32 0 14 -8 21 -8 24 0 2 8 10 8 27 0 25 -11 67 3 46 16 -6 4
-11 2 -11 -3 0 -6 -4 -11 -10 -11 -5 0 -7 6 -4 13 2 7 -6 22 -18 33 l-23 19
20 -24 20 -25 -26 20 c-15 10 -25 23 -22 27 7 11 -37 57 -53 57 -7 0 -16 5
-20 12 -5 8 -1 9 12 5 14 -5 12 -2 -6 12 -14 11 -27 18 -29 15 -2 -2 -10 4
-18 14 -8 9 -12 11 -8 5 4 -8 -1 -13 -11 -13 -10 0 -14 3 -11 7 4 3 -1 12 -11
19 -16 12 -15 13 5 9 11 -2 36 -11 55 -21 l33 -17 -22 25 c-13 13 -23 28 -23
33 0 5 20 -12 43 -38 24 -26 47 -47 52 -47z m-180 60 c3 -5 2 -10 -4 -10 -5 0
-13 5 -16 10 -3 6 -2 10 4 10 5 0 13 -4 16 -10z m462 -44 c15 -12 42 -31 58
-40 24 -14 25 -16 8 -13 -33 7 -28 -1 11 -17 19 -8 46 -28 61 -45 15 -16 45
-42 67 -57 22 -15 46 -41 54 -58 l15 -31 -23 25 c-32 35 -109 90 -126 90 -7 0
-10 5 -7 10 3 6 -1 10 -9 10 -8 0 -18 5 -22 12 -4 7 -3 8 4 4 7 -4 12 -5 12
-2 0 3 -19 14 -42 26 -73 35 -90 47 -79 54 6 4 16 4 23 0 7 -5 8 -3 4 5 -5 7
-14 10 -21 7 -7 -2 -21 2 -32 10 -17 13 -17 14 2 7 18 -6 18 -5 6 10 -20 25 3
21 36 -7z m-442 4 c3 -5 1 -10 -4 -10 -6 0 -11 5 -11 10 0 6 2 10 4 10 3 0 8
-4 11 -10z m111 -67 c-5 -5 -76 35 -76 43 0 2 18 -5 41 -16 23 -12 38 -24 35
-27z m-691 -3 c3 -5 2 -10 -4 -10 -5 0 -13 5 -16 10 -3 6 -2 10 4 10 5 0 13
-4 16 -10z m569 -29 c-2 -3 -12 3 -22 13 -16 17 -16 18 5 5 12 -7 20 -15 17
-18z m71 -21 c3 -6 -1 -7 -9 -4 -18 7 -21 14 -7 14 6 0 13 -4 16 -10z m-170
-38 c-3 -3 -11 0 -18 7 -9 10 -8 11 6 5 10 -3 15 -9 12 -12z m220 8 c3 -5 1
-10 -4 -10 -6 0 -11 5 -11 10 0 6 2 10 4 10 3 0 8 -4 11 -10z m-160 -40 c4 -6
10 -8 14 -5 5 2 17 -2 27 -10 16 -13 17 -14 2 -9 -10 3 -18 1 -18 -5 0 -6 5
-11 12 -11 6 0 20 -7 30 -17 20 -18 25 -4 6 15 -9 9 -9 12 0 12 6 0 14 -10 18
-22 3 -14 31 -39 70 -63 74 -46 122 -93 118 -118 -1 -9 4 -17 11 -17 17 0 62
-37 54 -44 -3 -3 -15 3 -27 14 -12 11 -26 20 -31 20 -6 0 -22 11 -37 25 -24
22 -43 30 -66 26 -5 0 -7 4 -5 11 1 6 -27 24 -63 39 -36 16 -64 33 -63 38 2 6
-5 7 -15 4 -9 -3 -14 -2 -10 2 5 5 -22 26 -58 48 -36 21 -63 41 -60 44 3 3 12
1 19 -5 8 -7 16 -9 19 -7 9 10 58 -17 51 -28 -3 -6 -1 -7 5 -3 6 3 40 -12 77
-34 36 -22 68 -40 72 -40 10 0 -108 81 -143 98 -19 9 -31 21 -29 31 1 9 -5 22
-14 29 -14 11 -13 12 6 2 12 -5 25 -15 28 -20z m70 10 c8 -13 -5 -13 -25 0
-13 8 -13 10 2 10 9 0 20 -4 23 -10z m40 -28 c-3 -3 -11 0 -18 7 -9 10 -8 11
6 5 10 -3 15 -9 12 -12z m948 7 c-9 -9 -4 -18 18 -36 16 -14 29 -31 29 -39 0
-8 -15 1 -35 21 -32 34 -38 65 -12 65 8 0 8 -3 0 -11z m-1526 -64 c0 -8 -4
-12 -9 -9 -5 3 -6 10 -3 15 9 13 12 11 12 -6z m1386 0 c4 -8 3 -16 -1 -19 -4
-3 -9 4 -9 15 -2 23 3 25 10 4z m-1348 -25 c3 -6 -1 -7 -9 -4 -18 7 -21 14 -7
14 6 0 13 -4 16 -10z m746 -31 c36 -38 44 -49 36 -49 -2 0 -23 20 -47 45 -24
25 -40 45 -36 45 5 0 26 -19 47 -41z m373 25 c3 -8 2 -12 -4 -9 -6 3 -10 10
-10 16 0 14 7 11 14 -7z m-901 -20 c29 -15 70 -41 92 -59 38 -30 110 -75 121
-75 3 0 2 6 -2 12 -11 17 -12 48 -3 48 4 0 11 -5 14 -10 4 -6 10 -8 15 -5 4 3
10 -2 14 -10 3 -8 12 -15 21 -15 8 0 15 -5 15 -11 0 -8 5 -8 15 1 12 10 25 5
72 -26 76 -49 201 -154 208 -173 4 -11 0 -10 -14 4 -24 24 -35 33 -86 69 -22
16 -31 20 -20 9 62 -59 60 -68 -3 -15 -70 60 -90 73 -77 52 13 -21 -12 -8 -50
26 -45 41 -129 89 -106 60 10 -12 10 -16 1 -16 -10 0 -10 -3 0 -15 7 -8 17
-15 22 -15 6 0 5 7 -2 15 -21 25 3 16 40 -15 19 -16 30 -30 24 -30 -6 0 -17 7
-24 15 -7 8 -17 15 -22 15 -6 0 -5 -7 2 -15 17 -20 1 -19 -22 2 -17 15 -20 15
-28 3 -11 -18 25 -58 95 -106 27 -19 44 -34 38 -34 -7 0 -15 5 -18 10 -3 6
-11 10 -17 10 -6 0 -5 -7 3 -17 13 -15 12 -15 -7 -5 -12 6 -24 9 -28 7 -3 -3
-4 -2 -1 2 7 9 -48 42 -59 35 -5 -3 2 -13 15 -23 13 -10 19 -19 12 -19 -7 0
-24 16 -39 35 -14 19 -31 32 -37 28 -6 -4 -7 -1 -2 7 6 10 4 12 -9 7 -10 -4
-15 -3 -11 3 3 6 0 10 -8 10 -19 0 -82 58 -73 67 3 4 16 -3 29 -14 12 -11 43
-33 70 -48 26 -15 47 -30 47 -34 0 -4 9 -7 19 -8 14 -1 18 3 14 13 -3 8 -12
14 -20 14 -8 0 -17 9 -20 20 -3 11 -10 20 -15 20 -5 0 -6 -5 -2 -12 4 -7 3 -8
-5 -4 -6 4 -9 12 -6 17 4 5 -6 20 -22 33 l-28 25 25 -6 c14 -3 31 -10 38 -16
7 -5 15 -7 18 -4 9 9 -59 48 -74 42 -7 -3 -11 -1 -8 4 3 4 -7 14 -22 22 -15 7
-35 22 -46 32 -10 11 -25 16 -34 12 -9 -3 -13 -3 -10 1 9 9 -11 28 -50 48 -29
15 -40 26 -27 26 3 0 29 -12 58 -26z m582 8 c-3 -3 -11 0 -18 7 -9 10 -8 11 6
5 10 -3 15 -9 12 -12z m-638 -47 c21 -18 92 -77 109 -90 10 -7 14 -17 9 -25
-4 -6 -10 -8 -14 -3 -3 5 -32 33 -63 62 -38 36 -66 54 -83 54 -14 0 -28 3 -31
8 -3 5 3 6 13 2 14 -5 13 0 -7 22 l-25 28 40 -23 c22 -14 45 -29 52 -35z
m1126 40 c-3 -9 -8 -14 -10 -11 -3 3 -2 9 2 15 9 16 15 13 8 -4z m202 -62 c24
-26 41 -51 38 -56 -3 -5 -10 -2 -16 8 -13 23 -44 54 -50 49 -2 -2 -9 7 -15 21
-17 37 -5 31 43 -22z m-1465 -7 c0 -11 -30 1 -39 16 -11 18 -11 18 14 2 14 -9
25 -17 25 -18z m350 14 c0 -4 -7 -11 -16 -14 -8 -3 -12 -2 -9 4 3 6 1 10 -4
10 -6 0 -11 4 -11 9 0 5 9 7 20 4 11 -3 20 -9 20 -13z m20 -20 c-10 -7 -11
-10 -2 -10 6 0 12 -5 12 -10 0 -6 -8 -5 -19 2 -18 11 -18 13 -3 24 9 7 19 10
22 8 2 -3 -2 -9 -10 -14z m-459 -49 c24 -17 56 -43 69 -58 l25 -28 -30 26
c-17 15 -52 41 -80 58 -27 17 -45 31 -39 31 6 0 31 -13 55 -29z m193 -25 c46
-30 87 -59 90 -65 10 -15 29 -14 20 2 -4 7 -3 9 2 4 5 -5 9 -12 9 -16 0 -4 15
-24 33 -45 17 -20 32 -34 32 -30 0 4 10 -2 23 -13 12 -11 31 -25 42 -31 11 -7
14 -12 7 -12 -8 0 -27 9 -43 21 -16 11 -34 17 -40 13 -8 -4 -9 -3 -5 4 5 8 0
12 -12 12 -11 0 -25 7 -33 16 -7 8 -36 31 -66 51 -29 19 -53 37 -53 40 0 11
31 -7 89 -53 69 -54 95 -55 29 -1 -70 56 -120 87 -131 80 -5 -3 -7 -1 -4 4 7
10 -21 32 -73 60 -14 7 -19 13 -12 13 7 0 50 -24 96 -54z m206 12 c0 -5 -8 0
-18 10 -11 9 -17 21 -14 25 4 8 31 -22 32 -35z m551 -20 c11 -21 11 -22 -4 -9
-10 7 -17 17 -17 22 0 15 9 10 21 -13z m-945 -14 c18 -14 18 -14 -6 -3 -31 14
-36 19 -24 19 6 0 19 -7 30 -16z m894 -31 c0 -7 -39 17 -46 28 -3 6 5 3 20 -6
14 -10 26 -19 26 -22z m-1920 7 c-8 -5 -22 -9 -30 -9 -10 0 -8 3 5 9 27 12 43
12 25 0z m995 0 c3 -5 1 -10 -4 -10 -6 0 -11 5 -11 10 0 6 2 10 4 10 3 0 8 -4
11 -10z m655 -81 c28 -24 22 -22 -27 11 -34 23 -70 51 -80 63 -22 26 57 -29
107 -74z m-623 75 c-10 -10 86 -75 101 -69 7 3 11 1 8 -4 -3 -5 6 -16 19 -25
14 -10 23 -22 19 -28 -4 -7 -3 -8 5 -4 13 8 111 -50 111 -66 0 -6 7 -7 16 -4
8 3 12 2 9 -3 -3 -5 4 -12 15 -16 11 -4 18 -11 15 -16 -4 -5 -11 -5 -18 1 -62
51 -79 62 -84 56 -4 -3 -17 4 -30 16 -13 12 -23 18 -23 15 0 -4 -18 5 -40 19
-22 15 -37 30 -35 35 3 4 1 10 -5 14 -5 3 -10 1 -10 -6 0 -8 -4 -8 -15 1 -9 7
-13 15 -10 18 3 3 -11 16 -30 29 -30 20 -39 43 -18 43 4 0 3 -3 0 -6z m611
-11 c23 -6 26 -11 14 -30 -5 -8 -18 -2 -42 19 -22 18 -27 27 -15 23 11 -4 30
-10 43 -12z m-508 -34 c0 -5 -11 1 -25 13 -14 12 -25 23 -25 25 0 2 11 -4 25
-13 14 -9 25 -20 25 -25z m37 -14 c0 -8 -4 -12 -9 -9 -5 4 -7 9 -4 12 3 3 -2
15 -11 26 -18 21 -18 21 3 3 11 -9 21 -24 21 -32z m263 5 c19 -17 31 -30 26
-30 -5 0 -24 14 -43 30 -18 17 -30 30 -26 30 4 -1 24 -14 43 -30z m285 -2 c7
1 16 -2 20 -8 4 -6 -1 -7 -11 -3 -13 5 -15 3 -9 -8 5 -8 1 -7 -12 4 -11 9 -23
17 -28 17 -4 0 -1 -8 6 -17 13 -16 12 -17 -3 -5 -14 11 -15 20 -8 52 0 3 7 -4
16 -15 8 -11 21 -19 29 -17z m-455 2 c11 -8 7 -9 -15 -4 -37 8 -45 14 -19 14
10 0 26 -5 34 -10z m635 -20 c10 -11 16 -20 13 -20 -3 0 -13 9 -23 20 -10 11
-16 20 -13 20 3 0 13 -9 23 -20z m-831 -16 c5 -14 4 -15 -9 -4 -17 14 -19 20
-6 20 5 0 12 -7 15 -16z m41 -32 c-3 -3 -11 0 -18 7 -9 10 -8 11 6 5 10 -3 15
-9 12 -12z m126 1 c13 -16 12 -17 -3 -4 -10 7 -18 15 -18 17 0 8 8 3 21 -13z
m569 7 c8 -5 11 -10 5 -10 -5 0 -17 5 -25 10 -8 5 -10 10 -5 10 6 0 17 -5 25
-10z m-280 -21 c0 -6 -4 -7 -10 -4 -5 3 -10 11 -10 16 0 6 5 7 10 4 6 -3 10
-11 10 -16z m191 4 c13 -16 12 -17 -3 -5 -9 8 -23 10 -29 6 -8 -4 -9 -3 -5 4
10 17 21 15 37 -5z m-541 -37 c20 -25 4 -18 -27 10 -20 19 -22 24 -7 16 11 -6
26 -18 34 -26z m161 17 c13 -16 12 -17 -3 -4 -10 7 -18 15 -18 17 0 8 8 3 21
-13z m54 -1 c-3 -3 -11 0 -18 7 -9 10 -8 11 6 5 10 -3 15 -9 12 -12z m61 -33
c3 -6 -5 -3 -20 6 -14 10 -26 19 -26 22 0 7 39 -17 46 -28z m-580 -10 c4 -8 1
-8 -14 0 -12 6 -24 16 -28 22 -4 8 -1 8 14 0 12 -6 24 -16 28 -22z m895 -6
c13 -16 12 -17 -3 -4 -10 7 -18 15 -18 17 0 8 8 3 21 -13z m-260 -20 c13 -16
12 -17 -3 -4 -10 7 -18 15 -18 17 0 8 8 3 21 -13z m-230 -10 c13 -16 12 -17
-3 -4 -10 7 -18 15 -18 17 0 8 8 3 21 -13z m280 -20 c13 -15 12 -15 -8 -4 -24
12 -29 21 -14 21 5 0 15 -7 22 -17z m-286 -11 c-3 -3 -11 0 -18 7 -9 10 -8 11
6 5 10 -3 15 -9 12 -12z m224 -34 c30 -21 51 -38 47 -38 -9 0 -126 81 -126 87
0 5 12 -2 79 -49z m112 15 c13 -15 12 -15 -8 -4 -24 12 -29 21 -14 21 5 0 15
-7 22 -17z m-636 -3 c3 -6 -1 -7 -9 -4 -18 7 -21 14 -7 14 6 0 13 -4 16 -10z
m370 -15 l30 -25 -37 21 c-21 11 -38 23 -38 25 0 10 17 2 45 -21z m1394 -84
c9 -6 0 -10 -28 -13 -39 -3 -49 1 -34 15 9 10 45 8 62 -2z m-449 -15 c0 -3 -4
-8 -10 -11 -5 -3 -10 -1 -10 4 0 6 5 11 10 11 6 0 10 -2 10 -4z m535 -6 c3 -5
1 -10 -4 -10 -6 0 -11 5 -11 10 0 6 2 10 4 10 3 0 8 -4 11 -10z m39 -6 c9 -24
2 -26 -12 -4 -7 11 -8 20 -3 20 5 0 12 -7 15 -16z m-114 0 c0 -8 -19 -13 -24
-6 -3 5 1 9 9 9 8 0 15 -2 15 -3z m-740 -30 c0 -8 -4 -12 -10 -9 -5 3 -10 13
-10 21 0 8 5 12 10 9 6 -3 10 -13 10 -21z m555 16 c-3 -5 -13 -10 -21 -10 -8
0 -12 5 -9 10 3 6 13 10 21 10 8 0 12 -4 9 -10z m-255 -4 c0 -3 -4 -8 -10 -11
-5 -3 -10 -1 -10 4 0 6 5 11 10 11 6 0 10 -2 10 -4z m630 -47 c0 -5 -7 -9 -15
-9 -9 0 -12 6 -9 15 6 15 24 11 24 -6z m-1393 -21 c-3 -8 -6 -5 -6 6 -1 11 2
17 5 13 3 -3 4 -12 1 -19z m666 15 c-7 -2 -19 -2 -25 0 -7 3 -2 5 12 5 14 0
19 -2 13 -5z m796 -49 c-6 -7 -4 -16 6 -24 13 -11 14 -10 9 5 -6 15 -5 15 14
4 12 -7 19 -15 17 -17 -2 -2 7 -15 21 -29 34 -34 30 -37 -16 -8 -22 14 -44 25
-49 25 -16 0 -33 28 -21 35 5 3 10 16 10 28 0 17 2 19 10 7 5 -9 5 -19 -1 -26z
m-2189 -134 c0 -5 -4 -10 -10 -10 -5 0 -10 5 -10 10 0 6 5 10 10 10 6 0 10 -4
10 -10z m2310 -15 c6 -8 10 -20 8 -26 -2 -6 -12 0 -21 15 -18 27 -8 37 13 11z
m60 -25 c0 -5 -4 -10 -10 -10 -5 0 -10 5 -10 10 0 6 5 10 10 10 6 0 10 -4 10
-10z m-2403 -266 c-3 -3 -12 -4 -19 -1 -8 3 -5 6 6 6 11 1 17 -2 13 -5z m-50
-256 c-3 -8 -6 -5 -6 6 -1 11 2 17 5 13 3 -3 4 -12 1 -19z m28 -48 c-3 -5 -15
-10 -26 -10 -10 0 -19 5 -19 10 0 6 12 10 26 10 14 0 23 -4 19 -10z m0 -30 c3
-6 -5 -10 -19 -10 -14 0 -28 5 -31 10 -3 6 5 10 19 10 14 0 28 -4 31 -10z
m-75 -80 c0 -5 -7 -7 -15 -4 -8 4 -15 8 -15 10 0 2 7 4 15 4 8 0 15 -4 15 -10z
m2523 -35 c-3 -9 -8 -14 -10 -11 -3 3 -2 9 2 15 9 16 15 13 8 -4z m-46 -147
c-3 -8 -6 -5 -6 6 -1 11 2 17 5 13 3 -3 4 -12 1 -19z m-2602 -29 c-4 -5 2 -9
11 -9 14 0 15 -3 6 -12 -14 -14 -16 -62 -2 -53 6 3 10 1 10 -4 0 -21 -30 -11
-34 12 -7 44 -5 88 5 82 5 -4 7 -11 4 -16z m2609 -85 c3 -8 2 -12 -4 -9 -6 3
-10 10 -10 16 0 14 7 11 14 -7z m-784 -12 l35 -7 -40 -5 c-24 -3 -45 0 -52 7
-18 17 -16 26 5 18 9 -4 33 -10 52 -13z m-1030 -17 c0 -8 -4 -15 -10 -15 -5 0
-10 7 -10 15 0 8 5 15 10 15 6 0 10 -7 10 -15z m1338 -64 c2 -6 -6 -11 -18
-11 -13 0 -19 4 -14 12 4 7 3 8 -4 4 -19 -12 -14 -26 10 -26 37 0 16 -7 -42
-14 -39 -5 -51 -3 -40 4 10 7 -12 8 -75 4 -64 -5 -87 -3 -80 4 6 6 28 12 50
13 22 2 47 7 56 12 10 7 27 6 47 -1 24 -8 32 -8 36 4 3 8 0 14 -7 14 -8 0 -8
3 2 9 16 10 73 -10 79 -28z m-828 7 c0 -18 -2 -20 -9 -8 -6 8 -7 18 -5 22 9
14 14 9 14 -14z m50 18 c0 -3 -4 -8 -10 -11 -5 -3 -10 -1 -10 4 0 6 5 11 10
11 6 0 10 -2 10 -4z m318 -63 c-15 -2 -42 -2 -60 0 -18 2 -6 4 27 4 33 0 48
-2 33 -4z m682 -7 c0 -3 -4 -8 -10 -11 -5 -3 -10 -1 -10 4 0 6 5 11 10 11 6 0
10 -2 10 -4z m-1135 -37 l70 -2 -65 -7 c-36 -4 -76 -7 -90 -5 -14 1 -49 3 -77
4 -29 0 -53 6 -53 11 0 7 27 9 73 6 39 -3 104 -6 142 -7z m708 4 c-13 -2 -33
-2 -45 0 -13 2 -3 4 22 4 25 0 35 -2 23 -4z m-2442 -20 c13 -16 12 -17 -3 -4
-10 7 -18 15 -18 17 0 8 8 3 21 -13z m1836 11 c-3 -3 -12 -4 -19 -1 -8 3 -5 6
6 6 11 1 17 -2 13 -5z m736 -1 c-7 -2 -19 -2 -25 0 -7 3 -2 5 12 5 14 0 19 -2
13 -5z m70 -10 c-7 -2 -21 -2 -30 0 -10 3 -4 5 12 5 17 0 24 -2 18 -5z m-1232
-39 c9 -11 2 -9 -18 6 -18 13 -33 25 -33 27 0 8 38 -17 51 -33z m1434 -61 c-2
-7 1 -12 8 -10 26 5 47 -93 44 -198 -4 -102 -38 -241 -57 -230 -5 3 -12 0 -16
-6 -4 -8 -3 -9 4 -5 42 26 -29 -101 -96 -170 -134 -140 -403 -174 -599 -76
-71 36 -120 84 -178 173 -62 93 -87 174 -90 289 -3 69 -1 83 4 50 5 -25 9 -39
9 -32 1 6 11 12 22 12 18 0 19 3 10 21 -7 11 -9 23 -6 27 3 3 -1 13 -9 23 -15
15 -14 18 14 27 25 9 31 8 31 -3 0 -7 12 -15 28 -17 20 -2 28 -9 30 -28 2 -14
11 -33 19 -42 15 -16 15 -18 -1 -18 -9 0 -14 5 -11 10 6 10 -15 15 -44 10 -13
-1 -13 1 -2 14 8 9 10 16 5 16 -12 0 -40 -18 -34 -22 3 -2 19 -13 37 -26 18
-12 37 -22 44 -22 6 0 8 -7 5 -16 -4 -11 -2 -15 8 -11 8 3 17 -1 20 -9 3 -8
11 -14 18 -14 7 0 30 -5 50 -10 26 -8 35 -15 31 -25 -4 -11 1 -14 18 -13 15 2
23 -2 21 -9 -1 -7 4 -13 12 -13 9 0 12 7 9 20 -3 11 -14 20 -24 20 -21 0 -26
16 -7 22 14 5 3 38 -13 38 -6 0 -9 -7 -5 -15 7 -19 -18 -20 -34 -1 -6 8 -17
13 -24 10 -15 -6 -42 23 -32 33 4 4 11 1 15 -6 8 -13 111 -18 130 -6 5 2 14
-2 21 -10 14 -17 60 -21 60 -5 0 6 -5 10 -12 10 -6 0 -9 3 -5 6 3 3 12 2 19
-2 7 -5 27 -10 43 -11 17 -1 45 -5 63 -9 19 -4 32 -2 32 4 0 14 -47 26 -92 24
-21 -1 -38 2 -38 8 0 5 5 10 10 10 6 0 10 5 10 10 0 6 -11 8 -25 4 -16 -4 -25
-2 -25 6 0 6 -4 9 -9 5 -5 -3 -12 -1 -15 4 -3 5 8 11 25 13 16 3 32 1 35 -4 3
-4 38 -7 77 -7 40 1 63 3 52 6 -33 8 -38 20 -11 25 14 3 23 1 20 -4 -3 -5 14
5 38 21 34 23 46 27 57 18 12 -9 13 -9 7 1 -5 9 4 12 33 12 23 0 41 -5 41 -11
0 -6 6 -9 14 -6 7 3 18 1 24 -5 16 -16 31 -1 25 25 -4 18 -3 19 6 7 9 -13 11
-13 11 3 0 9 5 17 10 17 6 0 16 11 22 25 8 17 17 24 29 20 28 -9 65 4 66 25 1
10 -5 21 -13 24 -8 3 -14 10 -14 16 0 6 11 3 25 -7 13 -10 22 -24 20 -30z
m-1147 27 c15 0 15 -2 2 -10 -12 -8 -10 -10 10 -10 20 0 22 -2 10 -10 -12 -8
-10 -10 10 -11 14 0 41 -7 60 -15 21 -9 25 -12 10 -9 -92 20 -120 28 -120 34
0 4 -17 5 -37 3 -29 -2 -34 -1 -23 7 8 6 24 11 35 11 17 0 18 2 5 11 -12 9
-12 10 3 5 10 -3 26 -6 35 -6z m605 3 c-7 -2 -21 -2 -30 0 -10 3 -4 5 12 5 17
0 24 -2 18 -5z m717 -23 c0 -5 -5 -10 -11 -10 -5 0 -7 5 -4 10 3 6 8 10 11 10
2 0 4 -4 4 -10z m-1423 -6 c-3 -3 -12 -4 -19 -1 -8 3 -5 6 6 6 11 1 17 -2 13
-5z m1833 -43 c0 -9 -7 -26 -15 -37 -13 -18 -14 -17 -15 17 0 20 3 39 6 42 10
10 24 -2 24 -22z m-995 -71 c-3 -5 -12 -10 -20 -10 -7 0 -15 -5 -17 -10 -4
-12 -206 -22 -213 -11 -5 9 71 21 158 25 31 2 60 6 64 9 10 11 35 8 28 -3z
m-705 -60 c11 -16 20 -32 20 -37 0 -20 70 -222 99 -285 17 -37 31 -75 31 -84
0 -9 31 -46 69 -83 74 -71 91 -96 91 -135 0 -29 -29 -40 -46 -17 -13 17 -103
24 -121 9 -9 -7 -13 -7 -13 1 0 6 -11 11 -25 11 -14 0 -25 -4 -25 -9 0 -15
-29 -21 -57 -10 -20 7 -29 6 -35 -3 -8 -10 -11 -10 -15 0 -2 6 -16 12 -29 12
-13 0 -24 4 -24 8 0 4 -15 12 -32 17 -35 11 -64 53 -48 69 13 13 13 39 0 31
-5 -3 -10 -2 -10 4 0 5 4 12 9 15 11 7 10 76 -1 76 -13 0 -27 43 -18 55 4 6 6
20 4 33 -2 12 1 22 6 22 6 0 10 7 10 15 0 8 -4 15 -8 15 -17 0 1 65 22 83 l21
19 -22 -5 c-22 -5 -22 -4 -7 25 13 25 14 32 2 39 -10 7 -8 9 6 9 16 0 18 6 13
40 -3 22 -1 40 3 40 4 0 6 10 2 22 -4 17 -2 20 11 15 8 -3 18 0 20 7 9 23 75
7 97 -24z m-570 -150 c0 -5 7 -10 15 -10 8 0 15 -4 15 -9 0 -6 9 -8 20 -6 25
5 26 -10 3 -24 -15 -9 -14 -10 10 -11 31 0 45 -23 28 -44 -9 -11 -7 -15 11
-20 15 -5 18 -9 10 -13 -10 -4 -10 -8 -1 -19 6 -7 9 -20 6 -27 -3 -8 -1 -20 4
-28 8 -11 9 -10 7 5 -2 10 3 21 10 24 24 8 9 -42 -15 -53 -13 -5 -23 -12 -23
-16 0 -3 10 -11 23 -18 14 -7 15 -10 3 -6 -13 4 -17 1 -13 -9 8 -19 -67 -80
-136 -111 -81 -35 -165 -49 -270 -42 -51 3 -108 11 -127 18 -46 16 -112 50
-128 66 -8 7 -17 11 -22 8 -9 -6 -32 19 -28 32 2 4 -13 29 -33 53 -34 42 -89
140 -89 157 0 4 16 -20 34 -55 44 -80 85 -134 97 -126 5 3 9 2 8 -3 -4 -21 2
-44 9 -39 5 3 20 -6 33 -18 26 -24 76 -46 66 -29 -4 7 10 6 37 0 31 -7 43 -14
39 -23 -3 -8 -1 -14 4 -14 5 0 9 9 10 20 1 12 -4 20 -15 20 -14 0 -14 1 -1 13
11 8 14 21 8 42 -3 17 -7 22 -8 13 -1 -13 -10 -18 -31 -18 -16 0 -30 -4 -30
-10 0 -5 12 -10 26 -10 15 0 23 -4 19 -10 -11 -18 -64 7 -65 30 0 3 10 10 22
15 30 14 38 39 9 30 -17 -5 -20 -3 -14 11 5 14 2 16 -20 10 -17 -4 -31 -1 -40
9 -16 15 -12 55 5 55 5 0 8 10 6 23 -3 21 -7 23 -37 15 -7 -1 -16 3 -18 10 -3
8 5 12 22 12 22 0 26 4 22 19 -3 12 1 22 10 25 11 5 14 -1 12 -22 -4 -43 10
-75 29 -67 29 11 34 10 40 -4 3 -9 0 -11 -8 -6 -9 5 -11 4 -6 -3 11 -18 23
-14 29 8 5 20 27 28 27 10 0 -5 5 -10 10 -10 6 0 10 7 10 15 0 9 6 12 15 9 8
-4 15 -2 15 4 0 6 -6 12 -12 15 -7 2 -10 8 -6 12 4 4 15 0 24 -9 15 -16 15
-18 -6 -36 -24 -20 -17 -27 10 -10 9 6 17 5 23 -3 5 -7 6 -3 2 10 -5 18 -3 22
9 17 11 -4 16 -1 16 10 0 9 -4 16 -10 16 -5 0 -10 4 -10 8 0 4 9 8 19 8 11 0
17 -4 15 -8 -3 -4 4 -8 16 -8 13 0 19 4 14 11 -5 9 1 10 20 5 20 -5 26 -3 21
5 -6 8 2 9 25 4 23 -5 30 -4 26 4 -4 6 -24 11 -44 12 -34 0 -35 1 -13 10 16 6
35 6 53 0 16 -6 26 -6 23 -2 -12 20 8 43 31 37 27 -7 56 2 48 16 -3 5 0 8 8 6
7 -2 13 2 13 7 0 6 -3 9 -7 8 -5 -2 -8 2 -8 7 0 6 9 10 20 10 11 0 20 -4 20
-10z m-113 -26 c-3 -3 -12 -4 -19 -1 -8 3 -5 6 6 6 11 1 17 -2 13 -5z m-490
-36 c-3 -8 -6 -5 -6 6 -1 11 2 17 5 13 3 -3 4 -12 1 -19z m-14 -27 c3 -11 -1
-22 -8 -24 -8 -4 -10 3 -7 19 5 29 8 30 15 5z m175 -30 c13 -7 22 -21 21 -34
0 -16 -2 -18 -7 -7 -4 9 -16 15 -27 15 -15 0 -20 7 -22 30 -1 16 1 25 5 19 4
-6 17 -16 30 -23z m-131 13 c-3 -3 -12 -4 -19 -1 -8 3 -5 6 6 6 11 1 17 -2 13
-5z m-7 -23 c0 -5 -7 -14 -15 -21 -12 -10 -15 -10 -15 2 0 8 3 18 7 21 9 10
23 9 23 -2z m200 0 c0 -5 -7 -11 -15 -15 -15 -5 -20 5 -8 17 9 10 23 9 23 -2z
m-183 -58 c-4 -3 -2 -12 5 -20 6 -7 8 -16 4 -20 -3 -3 -6 -1 -6 5 0 7 -7 12
-15 12 -8 0 -15 7 -15 15 0 8 8 15 17 15 9 0 13 -3 10 -7z m-136 -68 c8 -16 6
-15 -10 4 -12 13 -21 28 -21 35 0 12 14 -5 31 -39z m869 11 c0 -2 -7 -7 -16
-10 -8 -3 -12 -2 -9 4 6 10 25 14 25 6z m705 -134 c-4 -5 -22 12 -45 43 -8 11
0 7 18 -9 17 -16 30 -32 27 -34z m-1390 -51 c22 -12 63 -28 90 -36 45 -13 46
-14 10 -9 -22 3 -44 7 -50 9 -5 1 -25 6 -43 10 -24 6 -30 10 -20 16 10 7 10 9
-3 9 -8 0 -40 23 -70 51 l-54 51 50 -40 c28 -21 68 -49 90 -61z m20 79 c3 -5
1 -10 -4 -10 -6 0 -11 5 -11 10 0 6 2 10 4 10 3 0 8 -4 11 -10z m749 -5 c-6
-16 -34 -21 -34 -7 0 13 11 22 26 22 8 0 11 -6 8 -15z m48 -21 c3 -3 4 -14 1
-25 -8 -28 -33 -24 -33 6 0 23 18 34 32 19z m-76 -31 c-10 -10 -19 5 -10 18 6
11 8 11 12 0 2 -7 1 -15 -2 -18z m-548 -80 c-10 -2 -26 -2 -35 0 -10 3 -2 5
17 5 19 0 27 -2 18 -5z m322 -59 c0 -14 3 -14 15 -4 12 10 15 9 16 -6 3 -43 6
-62 13 -72 3 -6 0 -12 -6 -15 -10 -3 -9 -11 4 -34 10 -17 15 -33 11 -37 -3 -3
2 -15 12 -26 9 -10 15 -26 12 -35 -4 -8 -2 -15 3 -15 6 0 10 -5 10 -11 0 -6
-7 -8 -16 -5 -11 4 -15 2 -11 -7 3 -7 -1 -21 -9 -32 -14 -18 -14 -18 -14 1 -1
16 -3 15 -15 -7 -17 -31 -66 -45 -78 -23 -7 12 -12 10 -28 -8 l-20 -23 7 25
c6 22 4 21 -25 -10 -18 -19 -29 -27 -26 -18 8 19 -29 45 -40 28 -8 -13 -25
-13 -25 0 0 6 7 10 16 10 8 0 12 5 9 10 -3 6 -16 10 -28 10 -18 0 -19 2 -7 10
8 5 26 7 40 5 23 -5 22 -4 -3 6 -24 10 -27 15 -22 40 5 21 2 31 -9 35 -9 3
-16 17 -16 30 0 19 -5 24 -27 24 -16 0 -35 5 -43 10 -11 7 -4 10 27 10 23 0
43 -5 45 -11 2 -5 11 -7 21 -4 21 8 13 25 -12 25 -13 0 -18 8 -18 31 0 23 3
27 9 15 11 -20 29 -21 22 -1 -5 12 4 15 42 16 l49 2 -40 7 -40 7 38 2 c20 0
37 5 37 10 0 5 8 7 18 4 10 -2 24 2 31 11 7 8 18 13 25 10 8 -3 16 2 19 10 8
21 27 20 27 0z m1237 -10 c-3 -3 -12 -4 -19 -1 -8 3 -5 6 6 6 11 1 17 -2 13
-5z m103 -24 c0 -5 -4 -10 -10 -10 -5 0 -10 5 -10 10 0 6 5 10 10 10 6 0 10
-4 10 -10z m-1643 -86 c-3 -3 -12 -4 -19 -1 -8 3 -5 6 6 6 11 1 17 -2 13 -5z
m38 -54 c-3 -5 -15 -10 -26 -10 -10 0 -19 5 -19 10 0 6 12 10 26 10 14 0 23
-4 19 -10z m880 -42 c-7 -28 -9 -30 -15 -13 -4 11 -3 23 3 26 5 4 7 15 3 25
-5 15 -4 16 4 7 8 -7 9 -23 5 -45z m-955 22 c0 -5 -5 -10 -11 -10 -5 0 -7 5
-4 10 3 6 8 10 11 10 2 0 4 -4 4 -10z m60 -20 c0 -5 -4 -10 -10 -10 -5 0 -10
5 -10 10 0 6 5 10 10 10 6 0 10 -4 10 -10z m60 -20 c-6 -11 -15 -18 -20 -15
-6 4 -5 12 3 20 18 21 29 18 17 -5z m298 -98 c-13 -33 -28 -43 -28 -17 0 14
31 57 37 52 1 -2 -3 -18 -9 -35z m462 28 c0 -5 -4 -10 -10 -10 -5 0 -10 5 -10
10 0 6 5 10 10 10 6 0 10 -4 10 -10z m-507 -45 c-3 -9 -8 -14 -10 -11 -3 3 -2
9 2 15 9 16 15 13 8 -4z m-93 -5 c0 -5 -5 -10 -11 -10 -5 0 -7 5 -4 10 3 6 8
10 11 10 2 0 4 -4 4 -10z m170 -20 c0 -5 -4 -10 -10 -10 -5 0 -10 5 -10 10 0
6 5 10 10 10 6 0 10 -4 10 -10z m1090 -14 c0 -3 -4 -8 -10 -11 -5 -3 -10 -1
-10 4 0 6 5 11 10 11 6 0 10 -2 10 -4z m-1003 -28 c-3 -8 -6 -5 -6 6 -1 11 2
17 5 13 3 -3 4 -12 1 -19z m877 6 c3 -8 2 -12 -4 -9 -6 3 -10 10 -10 16 0 14
7 11 14 -7z m808 -49 c-2 -14 -6 -25 -8 -25 -2 0 -4 11 -4 25 0 14 4 25 9 25
4 0 6 -11 3 -25z m-882 -55 c0 -5 -4 -10 -10 -10 -5 0 -10 5 -10 10 0 6 5 10
10 10 6 0 10 -4 10 -10z m817 -21 c2 -16 -1 -19 -9 -11 -5 5 -7 15 -4 21 10
15 12 14 13 -10z m-177 1 c0 -5 -5 -10 -11 -10 -5 0 -7 5 -4 10 3 6 8 10 11
10 2 0 4 -4 4 -10z m-1160 -10 c0 -5 -10 -10 -22 -10 -19 0 -20 2 -8 10 19 13
30 13 30 0z m-165 -60 c-3 -5 -11 -10 -16 -10 -6 0 -7 5 -4 10 3 6 11 10 16
10 6 0 7 -4 4 -10z m45 0 c8 -5 12 -12 9 -15 -8 -8 -39 5 -39 16 0 11 11 11
30 -1z m1407 -12 c1 -11 -3 -18 -10 -15 -17 5 -21 34 -4 34 7 0 14 -9 14 -19z
m-1852 -28 c3 -5 1 -10 -4 -10 -6 0 -11 5 -11 10 0 6 2 10 4 10 3 0 8 -4 11
-10z m1839 -25 c3 -9 0 -15 -8 -15 -7 0 -13 7 -13 15 0 8 4 15 8 15 4 0 9 -7
13 -15z m-1794 -6 c0 -6 10 -8 23 -5 15 4 13 2 -5 -6 -16 -7 -28 -18 -28 -25
0 -7 -4 -13 -10 -13 -5 0 -10 -7 -10 -15 0 -8 -4 -15 -8 -15 -5 0 -8 18 -8 40
0 22 4 40 8 40 4 0 8 -4 8 -10 0 -5 4 -10 10 -10 5 0 7 7 4 15 -4 8 -1 15 5
15 6 0 11 -5 11 -11z m-60 -15 c0 -2 -7 -4 -15 -4 -8 0 -15 4 -15 10 0 5 7 7
15 4 8 -4 15 -8 15 -10z m110 -20 c0 -4 -7 -12 -16 -18 -14 -11 -14 -13 0 -25
12 -10 16 -10 16 -2 0 7 5 9 11 5 8 -4 7 -9 -2 -15 -12 -8 -11 -11 1 -19 9 -6
10 -10 3 -10 -7 0 -17 8 -22 18 -9 15 -12 15 -20 2 -6 -8 -14 -11 -18 -6 -4 5
-2 11 5 13 6 3 10 9 6 14 -9 15 6 49 22 49 8 0 14 -3 14 -6z m-120 -24 c0 -5
-4 -10 -10 -10 -5 0 -10 5 -10 10 0 6 5 10 10 10 6 0 10 -4 10 -10z m1780 -64
c0 -3 -4 -8 -10 -11 -5 -3 -10 -1 -10 4 0 6 5 11 10 11 6 0 10 -2 10 -4z
m-1475 -26 c3 -5 1 -10 -4 -10 -6 0 -11 5 -11 10 0 6 2 10 4 10 3 0 8 -4 11
-10z m45 -4 c0 -3 -4 -8 -10 -11 -5 -3 -10 -1 -10 4 0 6 5 11 10 11 6 0 10 -2
10 -4z m-163 -52 c-3 -3 -12 -4 -19 -1 -8 3 -5 6 6 6 11 1 17 -2 13 -5z m1453
-19 c14 -8 21 -14 15 -14 -5 0 -21 6 -35 14 -14 8 -20 14 -15 14 6 0 21 -6 35
-14z m217 -61 c-3 -3 -12 -4 -19 -1 -8 3 -5 6 6 6 11 1 17 -2 13 -5z m-1680
-91 c-3 -3 -11 -2 -17 2 -9 6 -9 10 1 16 14 8 27 -7 16 -18z m20 -25 c-3 -8
-6 -5 -6 6 -1 11 2 17 5 13 3 -3 4 -12 1 -19z m56 3 c3 -14 1 -18 -9 -14 -8 3
-14 11 -14 19 0 21 17 17 23 -5z m-963 -10 c0 -29 41 -155 54 -164 7 -6 5 -7
-6 -4 -9 3 -19 1 -22 -6 -2 -7 -5 4 -5 23 -1 19 -6 42 -12 50 -9 13 -10 13 -8
0 3 -26 -1 -93 -5 -89 -2 2 -7 50 -11 107 -4 70 -3 102 4 102 6 0 11 -9 11
-19z m1060 -51 c0 -5 -7 -10 -15 -10 -8 0 -15 5 -15 10 0 6 7 10 15 10 8 0 15
-4 15 -10z m80 0 c0 -5 -4 -10 -10 -10 -5 0 -10 5 -10 10 0 6 5 10 10 10 6 0
10 -4 10 -10z m287 -28 c8 -5 8 -14 -3 -32 -15 -25 -15 -25 -8 -1 4 15 1 27
-7 32 -8 5 -9 9 -4 9 6 0 15 -4 22 -8z m40 -34 c-3 -8 -6 -5 -6 6 -1 11 2 17
5 13 3 -3 4 -12 1 -19z m360 0 c-3 -8 -6 -5 -6 6 -1 11 2 17 5 13 3 -3 4 -12
1 -19z m-430 -10 c-3 -8 -6 -5 -6 6 -1 11 2 17 5 13 3 -3 4 -12 1 -19z m130
-39 c6 -46 -2 -52 -11 -9 -3 14 -8 36 -12 50 -5 19 -4 22 5 14 7 -6 15 -31 18
-55z m-427 41 c0 -5 -2 -10 -4 -10 -3 0 -8 5 -11 10 -3 6 -1 10 4 10 6 0 11
-4 11 -10z m97 -32 c-3 -8 -6 -5 -6 6 -1 11 2 17 5 13 3 -3 4 -12 1 -19z m260
0 c-3 -8 -6 -5 -6 6 -1 11 2 17 5 13 3 -3 4 -12 1 -19z m130 -10 c-3 -8 -6 -5
-6 6 -1 11 2 17 5 13 3 -3 4 -12 1 -19z m-1517 -44 c0 -9 -5 -14 -12 -12 -18
6 -21 28 -4 28 9 0 16 -7 16 -16z m1267 -16 c-3 -7 -5 -2 -5 12 0 14 2 19 5
13 2 -7 2 -19 0 -25z m381 18 c-7 -8 -15 -12 -17 -11 -5 6 10 25 20 25 5 0 4
-6 -3 -14z m-1699 -70 c2 -45 -6 -27 -12 29 -4 34 -3 42 3 25 4 -14 8 -38 9
-54z m1559 -11 c-3 -3 -9 2 -12 12 -6 14 -5 15 5 6 7 -7 10 -15 7 -18z m-1521
-147 c-3 -7 -5 -2 -5 12 0 14 2 19 5 13 2 -7 2 -19 0 -25z m40 -20 c-3 -8 -6
-5 -6 6 -1 11 2 17 5 13 3 -3 4 -12 1 -19z m-4 -65 c-6 -16 -8 -15 -13 7 -8
31 0 48 11 27 5 -8 6 -24 2 -34z m45 -114 c-3 -8 -7 -3 -11 10 -4 17 -3 21 5
13 5 -5 8 -16 6 -23z m1972 -69 c0 -5 -5 -10 -11 -10 -5 0 -7 5 -4 10 3 6 8
10 11 10 2 0 4 -4 4 -10z m30 -40 c0 -5 -4 -10 -10 -10 -5 0 -10 5 -10 10 0 6
5 10 10 10 6 0 10 -4 10 -10z m-90 -90 c0 -5 -4 -10 -10 -10 -5 0 -10 5 -10
10 0 6 5 10 10 10 6 0 10 -4 10 -10z m-177 -215 c-1 -5 -7 -11 -15 -13 -9 -2
-8 0 2 8 12 9 9 10 -13 5 -20 -4 -27 -2 -22 5 8 13 51 9 48 -5z m-62 -40 c-39
-18 -41 -18 -41 -6 0 5 10 12 23 14 45 9 51 6 18 -8z m-168 -105 c-14 -15 -67
-24 -59 -11 4 6 16 11 27 11 10 0 19 5 19 11 0 5 5 7 11 3 6 -3 7 -10 2 -14z
m-352 -13 c-10 -9 -11 -8 -5 6 3 10 9 15 12 12 3 -3 0 -11 -7 -18z m79 -11 c0
-2 -7 -6 -15 -10 -8 -3 -15 -1 -15 4 0 6 7 10 15 10 8 0 15 -2 15 -4z m100
-25 c0 -12 -8 -16 -43 -25 -21 -5 -28 -3 -25 6 3 7 10 13 16 13 5 0 14 3 18 8
10 10 34 9 34 -2z m-106 -22 c-3 -5 -10 -7 -15 -3 -5 3 -7 10 -3 15 3 5 10 7
15 3 5 -3 7 -10 3 -15z m-1577 -585 c-3 -3 -12 -4 -19 -1 -8 3 -5 6 6 6 11 1
17 -2 13 -5z m-100 -10 c-3 -3 -12 -4 -19 -1 -8 3 -5 6 6 6 11 1 17 -2 13 -5z
m210 -16 c50 -28 84 -59 77 -70 -3 -4 2 -11 10 -14 21 -8 38 -76 30 -119 -7
-40 -8 -40 -71 -19 -29 11 -83 17 -138 18 -74 1 -100 -3 -147 -23 -68 -29 -69
-26 47 -116 59 -46 90 -64 119 -67 37 -4 40 -2 99 66 33 39 65 73 70 75 11 4
-28 -50 -80 -113 -23 -27 -33 -50 -33 -73 0 -29 -3 -33 -25 -33 -14 0 -28 -1
-32 -2 -5 0 -17 16 -29 36 -11 20 -49 57 -85 83 -106 77 -154 132 -168 190
-20 83 6 146 76 182 38 20 39 12 1 -14 -21 -14 -42 -34 -47 -44 -9 -16 -7 -18
17 -14 15 3 36 8 47 13 69 29 176 29 289 -1 21 -6 40 -8 42 -6 7 7 -28 33 -81
61 -27 14 -45 26 -38 26 7 0 29 -10 50 -22z m-3213 -1705 c-10 -63 -22 -107
-23 -87 -2 37 11 114 20 114 4 0 6 -12 3 -27z m-45 -227 c-9 -8 -10 -7 -5 7 3
10 7 24 7 30 1 7 3 4 6 -7 3 -10 -1 -23 -8 -30z m-2 -68 c-3 -7 -5 -2 -5 12 0
14 2 19 5 13 2 -7 2 -19 0 -25z m-20 -130 c-3 -7 -5 -2 -5 12 0 14 2 19 5 13
2 -7 2 -19 0 -25z"/>
<path d="M4495 9520 c3 -5 11 -10 16 -10 6 0 7 5 4 10 -3 6 -11 10 -16 10 -6
0 -7 -4 -4 -10z"/>
<path d="M4936 9115 c10 -8 24 -14 29 -14 6 0 1 6 -9 14 -11 8 -24 15 -30 15
-5 0 -1 -7 10 -15z"/>
<path d="M4940 9084 c0 -2 9 -8 20 -14 11 -6 20 -7 20 -2 0 6 -9 12 -20 15
-11 3 -20 3 -20 1z"/>
<path d="M5080 9030 c0 -5 5 -10 11 -10 5 0 7 5 4 10 -3 6 -8 10 -11 10 -2 0
-4 -4 -4 -10z"/>
<path d="M5041 9009 c25 -22 37 -25 20 -6 -6 8 -9 16 -6 18 2 3 -5 6 -16 6
-20 2 -20 1 2 -18z"/>
<path d="M5117 9023 c-9 -9 22 -43 40 -43 7 0 13 -4 13 -10 0 -5 -7 -7 -15 -4
-23 9 -18 -2 8 -19 23 -15 24 -14 22 14 -1 23 2 29 14 24 11 -3 10 0 -3 10
-11 8 -22 11 -25 6 -4 -5 -16 -5 -29 0 -13 5 -20 13 -17 19 7 11 2 13 -8 3z"/>
<path d="M4882 8988 c3 -14 -14 -15 -47 -3 -16 6 -15 4 4 -10 13 -10 38 -21
55 -24 18 -4 31 -13 31 -21 0 -8 5 -15 12 -15 6 0 15 -3 19 -7 13 -13 24 -9
24 9 0 9 -3 13 -6 10 -4 -4 -19 2 -34 13 -16 11 -36 20 -45 20 -9 0 -13 5 -10
10 9 15 19 12 50 -12 34 -26 62 -33 62 -14 0 8 -8 12 -21 9 -18 -4 -19 -3 -6
7 12 9 10 10 -9 5 -20 -6 -23 -4 -17 10 5 13 2 16 -10 11 -8 -3 -24 -1 -35 4
-15 8 -19 8 -17 -2z"/>
<path d="M5100 8996 c0 -2 8 -10 18 -17 15 -13 16 -12 3 4 -13 16 -21 21 -21
13z"/>
<path d="M5090 8966 c0 -2 7 -7 16 -10 8 -3 12 -2 9 4 -6 10 -25 14 -25 6z"/>
<path d="M5090 8836 c0 -2 7 -7 16 -10 8 -3 12 -2 9 4 -6 10 -25 14 -25 6z"/>
<path d="M5170 8803 c0 -5 9 -18 20 -28 11 -10 20 -14 20 -8 0 5 -9 18 -20 28
-11 10 -20 14 -20 8z"/>
<path d="M4661 8687 c2 -1 13 -9 24 -17 19 -14 19 -14 6 3 -7 9 -18 17 -24 17
-6 0 -8 -1 -6 -3z"/>
<path d="M4764 8565 c11 -8 25 -15 30 -15 6 0 2 7 -8 15 -11 8 -25 15 -30 15
-6 0 -2 -7 8 -15z"/>
<path d="M4311 8547 c2 -1 13 -9 24 -17 19 -14 19 -14 6 3 -7 9 -18 17 -24 17
-6 0 -8 -1 -6 -3z"/>
<path d="M5738 6863 c7 -3 16 -2 19 1 4 3 -2 6 -13 5 -11 0 -14 -3 -6 -6z"/>
<path d="M6101 6554 c0 -11 3 -14 6 -6 3 7 2 16 -1 19 -3 4 -6 -2 -5 -13z"/>
<path d="M5705 6500 c3 -5 13 -10 21 -10 8 0 14 5 14 10 0 6 -9 10 -21 10 -11
0 -17 -4 -14 -10z"/>
<path d="M5760 6499 c0 -5 5 -7 10 -4 6 3 10 8 10 11 0 2 -4 4 -10 4 -5 0 -10
-5 -10 -11z"/>
<path d="M5696 6441 c-4 -7 -5 -15 -2 -18 9 -9 19 4 14 18 -4 11 -6 11 -12 0z"/>
<path d="M5950 6440 c0 -5 5 -10 11 -10 5 0 7 5 4 10 -3 6 -8 10 -11 10 -2 0
-4 -4 -4 -10z"/>
<path d="M5454 6363 c-16 -5 -5 -43 12 -43 8 0 14 9 14 19 0 22 -9 30 -26 24z"/>
<path d="M6021 6194 c0 -11 3 -14 6 -6 3 7 2 16 -1 19 -3 4 -6 -2 -5 -13z"/>
<path d="M5930 6149 c0 -5 5 -7 10 -4 6 3 10 8 10 11 0 2 -4 4 -10 4 -5 0 -10
-5 -10 -11z"/>
<path d="M5960 6152 c0 -7 4 -12 9 -12 5 0 11 -8 13 -17 2 -12 6 -14 10 -7 4
6 -1 19 -12 29 -12 10 -20 13 -20 7z"/>
<path d="M5950 6121 c0 -6 4 -13 10 -16 6 -3 7 1 4 9 -7 18 -14 21 -14 7z"/>
<path d="M5930 6081 c0 -5 6 -11 13 -14 6 -3 -1 -10 -17 -16 -16 -6 -26 -14
-23 -18 10 -9 57 26 57 42 0 8 -7 15 -15 15 -8 0 -15 -4 -15 -9z"/>
<path d="M4160 6201 c0 -5 7 -12 16 -15 14 -5 15 -4 4 9 -14 17 -20 19 -20 6z"/>
<path d="M3890 6120 c0 -5 5 -10 11 -10 5 0 7 5 4 10 -3 6 -8 10 -11 10 -2 0
-4 -4 -4 -10z"/>
<path d="M4476 6055 c-3 -8 -1 -15 4 -15 13 0 22 18 11 24 -5 3 -11 -1 -15 -9z"/>
<path d="M4435 6040 c-3 -5 1 -10 9 -10 9 0 16 5 16 10 0 6 -4 10 -9 10 -6 0
-13 -4 -16 -10z"/>
<path d="M4178 6023 c7 -3 16 -2 19 1 4 3 -2 6 -13 5 -11 0 -14 -3 -6 -6z"/>
<path d="M4415 6000 c-3 -6 1 -7 9 -4 18 7 21 14 7 14 -6 0 -13 -4 -16 -10z"/>
<path d="M4252 5968 c2 -6 10 -14 16 -16 7 -2 10 2 6 12 -7 18 -28 22 -22 4z"/>
<path d="M3935 5960 c27 -12 43 -12 25 0 -8 5 -22 9 -30 9 -10 0 -8 -3 5 -9z"/>
<path d="M4128 5938 c5 -5 16 -8 23 -6 8 3 3 7 -10 11 -17 4 -21 3 -13 -5z"/>
<path d="M4401 5744 c0 -11 3 -14 6 -6 3 7 2 16 -1 19 -3 4 -6 -2 -5 -13z"/>
<path d="M4218 5713 c7 -3 16 -2 19 1 4 3 -2 6 -13 5 -11 0 -14 -3 -6 -6z"/>
<path d="M4168 5693 c6 -2 18 -2 25 0 6 3 1 5 -13 5 -14 0 -19 -2 -12 -5z"/>
<path d="M4240 5530 c0 -5 5 -10 10 -10 6 0 10 5 10 10 0 6 -4 10 -10 10 -5 0
-10 -4 -10 -10z"/>
<path d="M4229 5494 c-12 -16 -12 -17 4 -11 12 4 17 1 18 -11 0 -10 3 -12 5
-5 3 7 1 19 -4 28 -8 15 -10 15 -23 -1z"/>
<path d="M3292 2731 c-6 -17 -7 -31 -3 -31 8 0 22 52 16 58 -1 2 -7 -11 -13
-27z"/>
<path d="M3365 2750 c-3 -5 -12 -7 -20 -3 -11 4 -15 -2 -14 -23 1 -17 3 -22 6
-11 5 21 43 23 43 2 0 -8 5 -15 11 -15 6 0 8 7 5 16 -3 9 -6 22 -6 30 0 16
-16 19 -25 4z"/>
<path d="M3427 2746 c-12 -30 -8 -46 8 -40 8 4 22 1 30 -6 23 -19 18 1 -8 34
-21 25 -25 27 -30 12z m23 -16 c0 -5 -5 -10 -11 -10 -5 0 -7 5 -4 10 3 6 8 10
11 10 2 0 4 -4 4 -10z"/>
<path d="M3220 2736 c0 -27 12 -46 29 -45 11 0 12 2 3 6 -10 4 -10 8 0 21 8
10 9 13 1 9 -6 -4 -14 -3 -17 2 -4 5 2 12 11 14 14 4 13 5 -4 6 -14 1 -23 -5
-23 -13z"/>
<path d="M3499 2738 c7 -10 10 -25 7 -34 -4 -12 -2 -15 9 -11 8 4 19 -1 24
-11 6 -9 11 -12 11 -5 0 6 -5 15 -10 18 -6 4 -8 16 -4 27 4 14 3 18 -5 13 -7
-4 -20 -1 -29 7 -15 12 -16 11 -3 -4z"/>
<path d="M3150 2708 c0 -13 5 -30 10 -38 8 -13 10 -13 10 2 0 10 5 15 13 12 8
-3 13 5 15 21 1 21 -3 25 -23 25 -19 0 -25 -5 -25 -22z m30 2 c0 -5 -4 -10
-10 -10 -5 0 -10 5 -10 10 0 6 5 10 10 10 6 0 10 -4 10 -10z"/>
<path d="M3384 2394 c3 -9 6 -18 6 -20 0 -15 39 0 43 16 4 17 0 20 -25 20 -23
0 -29 -4 -24 -16z"/>
<path d="M502 9189 c2 -6 8 -10 13 -10 5 0 11 4 13 10 2 6 -4 11 -13 11 -9 0
-15 -5 -13 -11z"/>
<path d="M3285 9090 c-3 -5 -1 -10 4 -10 6 0 11 5 11 10 0 6 -2 10 -4 10 -3 0
-8 -4 -11 -10z"/>
<path d="M5585 9040 c3 -5 11 -10 16 -10 6 0 7 5 4 10 -3 6 -11 10 -16 10 -6
0 -7 -4 -4 -10z"/>
<path d="M5730 8895 c13 -14 25 -25 27 -25 9 0 -33 49 -41 50 -5 0 1 -11 14
-25z"/>
<path d="M5780 8190 c0 -5 7 -10 15 -10 8 0 15 5 15 10 0 6 -7 10 -15 10 -8 0
-15 -4 -15 -10z"/>
<path d="M5215 8160 c-3 -5 -1 -10 4 -10 6 0 11 5 11 10 0 6 -2 10 -4 10 -3 0
-8 -4 -11 -10z"/>
<path d="M5920 8159 c0 -5 5 -7 10 -4 6 3 10 8 10 11 0 2 -4 4 -10 4 -5 0 -10
-5 -10 -11z"/>
<path d="M5091 8144 c0 -11 3 -14 6 -6 3 7 2 16 -1 19 -3 4 -6 -2 -5 -13z"/>
<path d="M5960 8130 c33 -26 48 -26 25 0 -10 11 -25 20 -34 20 -12 0 -9 -6 9
-20z"/>
<path d="M3145 8130 c3 -5 8 -10 11 -10 2 0 4 5 4 10 0 6 -5 10 -11 10 -5 0
-7 -4 -4 -10z"/>
<path d="M4805 8130 c3 -5 8 -10 11 -10 2 0 4 5 4 10 0 6 -5 10 -11 10 -5 0
-7 -4 -4 -10z"/>
<path d="M4870 8129 c0 -5 5 -7 10 -4 6 3 10 8 10 11 0 2 -4 4 -10 4 -5 0 -10
-5 -10 -11z"/>
<path d="M6020 8120 c0 -12 28 -25 36 -17 3 3 -4 10 -15 17 -15 7 -21 7 -21 0z"/>
<path d="M5930 8114 c0 -5 14 -20 30 -34 19 -15 32 -37 34 -54 2 -15 9 -31 16
-36 7 -4 10 -13 6 -18 -7 -11 23 -32 45 -32 8 0 6 7 -5 19 -10 11 -15 25 -11
30 4 7 -5 12 -22 12 -23 2 -24 2 -5 6 12 2 22 9 22 14 0 5 -10 9 -22 9 -19 0
-20 2 -8 10 19 12 2 43 -26 49 -10 1 -27 10 -36 19 -10 8 -18 11 -18 6z"/>
<path d="M6050 8052 c0 -5 9 -12 21 -15 13 -3 19 -1 16 6 -5 15 -37 22 -37 9z"/>
<path d="M4080 8001 c0 -5 9 -7 20 -4 11 3 20 7 20 9 0 2 -9 4 -20 4 -11 0
-20 -4 -20 -9z"/>
<path d="M4110 7969 c0 -5 5 -7 10 -4 6 3 10 8 10 11 0 2 -4 4 -10 4 -5 0 -10
-5 -10 -11z"/>
<path d="M6220 7952 c0 -22 20 -52 35 -52 8 0 15 -6 15 -13 0 -13 39 -42 46
-34 3 2 -7 15 -21 28 -13 13 -25 30 -25 38 0 8 -3 12 -6 8 -4 -3 -15 4 -25 16
-11 13 -18 17 -19 9z"/>
<path d="M4038 7943 c7 -3 16 -2 19 1 4 3 -2 6 -13 5 -11 0 -14 -3 -6 -6z"/>
<path d="M6191 7913 c7 -19 6 -28 -2 -34 -6 -4 -8 -12 -4 -19 6 -10 10 -9 16
3 10 17 1 77 -12 77 -5 0 -4 -12 2 -27z"/>
<path d="M4010 7900 c0 -5 5 -10 10 -10 6 0 10 5 10 10 0 6 -4 10 -10 10 -5 0
-10 -4 -10 -10z"/>
<path d="M3992 7854 c-7 -8 -8 -14 -3 -14 10 0 25 19 20 25 -2 1 -10 -3 -17
-11z"/>
<path d="M6207 7833 c-4 -3 -7 -11 -7 -17 0 -6 5 -5 12 2 6 6 9 14 7 17 -3 3
-9 2 -12 -2z"/>
<path d="M3990 7811 c0 -6 4 -13 10 -16 6 -3 7 1 4 9 -7 18 -14 21 -14 7z"/>
<path d="M6302 7780 c11 -22 22 -40 24 -40 8 0 -10 55 -22 67 -22 22 -22 14
-2 -27z"/>
<path d="M6216 7793 c-4 -9 0 -23 8 -31 13 -14 14 -12 10 9 -5 19 -2 17 17
-11 14 -23 24 -30 27 -21 2 7 0 16 -5 20 -6 3 -15 16 -22 29 -14 26 -26 28
-35 5z"/>
<path d="M6156 7777 c3 -10 9 -15 12 -12 3 3 0 11 -7 18 -10 9 -11 8 -5 -6z"/>
<path d="M6186 7772 c-3 -6 -1 -14 5 -17 14 -9 20 -2 10 14 -6 8 -11 9 -15 3z"/>
<path d="M6373 7754 c20 -11 27 -20 22 -32 -5 -14 -4 -14 6 -5 10 10 9 17 -6
33 -10 11 -25 20 -34 20 -10 -1 -5 -7 12 -16z"/>
<path d="M3990 7741 c0 -5 9 -7 20 -4 11 3 20 7 20 9 0 2 -9 4 -20 4 -11 0
-20 -4 -20 -9z"/>
<path d="M6210 7717 c0 -7 5 -18 12 -25 9 -9 9 -12 0 -12 -7 0 -12 3 -12 8 0
10 -41 35 -47 28 -3 -3 0 -13 8 -22 7 -9 13 -26 14 -37 0 -11 6 -22 14 -25 9
-3 11 2 6 17 -6 21 -4 22 29 15 l37 -6 -23 35 c-24 38 -38 46 -38 24z"/>
<path d="M6342 7714 c10 -10 20 -16 22 -13 3 3 -5 11 -17 18 -21 13 -21 12 -5
-5z"/>
<path d="M4010 7696 c0 -9 5 -16 10 -16 6 0 10 4 10 9 0 6 -4 13 -10 16 -5 3
-10 -1 -10 -9z"/>
<path d="M6345 7680 c3 -5 8 -10 11 -10 2 0 4 5 4 10 0 6 -5 10 -11 10 -5 0
-7 -4 -4 -10z"/>
<path d="M4040 7640 c0 -5 7 -10 16 -10 8 0 12 5 9 10 -3 6 -10 10 -16 10 -5
0 -9 -4 -9 -10z"/>
<path d="M6260 7641 c0 -5 5 -13 10 -16 6 -3 10 -2 10 4 0 5 -4 13 -10 16 -5
3 -10 2 -10 -4z"/>
<path d="M6375 7640 c3 -5 8 -10 11 -10 2 0 4 5 4 10 0 6 -5 10 -11 10 -5 0
-7 -4 -4 -10z"/>
<path d="M6384 7604 c3 -8 6 -20 6 -25 0 -5 5 -9 10 -9 16 0 11 37 -6 44 -12
5 -15 2 -10 -10z"/>
<path d="M6210 7605 c0 -7 30 -13 34 -7 3 4 -4 9 -15 9 -10 1 -19 0 -19 -2z"/>
<path d="M6298 7583 c12 -8 22 -23 23 -32 0 -9 3 -11 5 -4 8 18 -15 53 -34 52
-14 0 -13 -3 6 -16z"/>
<path d="M4090 7579 c0 -5 5 -7 10 -4 6 3 10 8 10 11 0 2 -4 4 -10 4 -5 0 -10
-5 -10 -11z"/>
<path d="M6156 7565 c4 -8 8 -15 10 -15 2 0 4 7 4 15 0 8 -4 15 -10 15 -5 0
-7 -7 -4 -15z"/>
<path d="M6130 7530 c0 -5 5 -10 10 -10 6 0 10 5 10 10 0 6 -4 10 -10 10 -5 0
-10 -4 -10 -10z"/>
<path d="M6149 7499 c-12 -7 -11 -11 5 -26 18 -17 18 -17 12 7 -3 14 -3 19 0
13 7 -15 24 -17 24 -4 0 14 -25 20 -41 10z"/>
<path d="M4095 7490 c-9 -15 4 -30 20 -23 8 3 15 9 15 13 0 12 -29 20 -35 10z"/>
<path d="M4010 7378 c0 -7 4 -19 9 -27 8 -12 11 -12 24 1 13 13 13 16 -4 26
-24 15 -29 15 -29 0z"/>
<path d="M6410 7360 c0 -5 4 -10 9 -10 5 0 7 -10 5 -22 -4 -23 -4 -23 6 0 10
25 6 42 -11 42 -5 0 -9 -4 -9 -10z"/>
<path d="M3960 7250 c0 -5 5 -10 11 -10 5 0 7 5 4 10 -3 6 -8 10 -11 10 -2 0
-4 -4 -4 -10z"/>
<path d="M3818 7073 c7 -3 16 -2 19 1 4 3 -2 6 -13 5 -11 0 -14 -3 -6 -6z"/>
<path d="M3834 7039 c-3 -6 -2 -15 3 -20 5 -5 9 -1 10 11 2 22 -2 25 -13 9z"/>
<path d="M4185 7030 c4 -6 11 -8 16 -5 14 9 11 15 -7 15 -8 0 -12 -5 -9 -10z"/>
<path d="M3985 7000 c3 -5 11 -10 16 -10 6 0 7 5 4 10 -3 6 -11 10 -16 10 -6
0 -7 -4 -4 -10z"/>
<path d="M5755 6989 c-4 -6 -4 -13 -1 -16 3 -4 6 -2 6 4 0 6 9 9 20 6 11 -3
20 0 20 6 0 14 -37 14 -45 0z"/>
<path d="M5708 6983 c7 -3 16 -2 19 1 4 3 -2 6 -13 5 -11 0 -14 -3 -6 -6z"/>
<path d="M5863 6968 c4 -13 1 -18 -11 -19 -9 -1 1 -5 23 -9 27 -5 46 -4 57 5
23 15 12 26 -19 19 -13 -4 -30 0 -40 7 -15 12 -16 12 -10 -3z"/>
<path d="M4636 6943 c-4 -9 -4 -18 -1 -21 3 -3 5 0 5 6 0 6 8 12 18 14 15 3
16 4 0 10 -10 4 -19 1 -22 -9z"/>
<path d="M6440 6919 c0 -5 5 -7 10 -4 6 3 10 8 10 11 0 2 -4 4 -10 4 -5 0 -10
-5 -10 -11z"/>
<path d="M4756 6911 c-4 -7 -5 -15 -2 -18 9 -9 19 4 14 18 -4 11 -6 11 -12 0z"/>
<path d="M4818 6883 c7 -3 16 -2 19 1 4 3 -2 6 -13 5 -11 0 -14 -3 -6 -6z"/>
<path d="M6225 6760 c-3 -5 -1 -10 4 -10 6 0 11 5 11 10 0 6 -2 10 -4 10 -3 0
-8 -4 -11 -10z"/>
<path d="M6280 6510 c0 -5 5 -10 10 -10 6 0 10 5 10 10 0 6 -4 10 -10 10 -5 0
-10 -4 -10 -10z"/>
<path d="M6221 6404 c0 -11 3 -14 6 -6 3 7 2 16 -1 19 -3 4 -6 -2 -5 -13z"/>
<path d="M6357 6403 c-6 -11 9 -49 22 -58 16 -9 14 7 -4 31 -8 12 -11 24 -8
28 3 3 4 6 0 6 -3 0 -8 -3 -10 -7z"/>
<path d="M6615 6313 c-3 -32 -10 -74 -15 -93 -5 -19 -12 -45 -15 -57 -4 -13
-4 -23 -1 -23 2 0 12 24 20 54 17 59 33 176 23 176 -3 0 -8 -26 -12 -57z"/>
<path d="M6346 6333 c8 -32 12 -39 19 -31 9 8 -6 58 -16 58 -5 0 -6 -12 -3
-27z"/>
<path d="M6367 6289 c-9 -5 -22 -7 -27 -4 -12 7 -12 -2 -1 -30 5 -11 5 -24 1
-30 -5 -5 -11 -32 -13 -60 -3 -27 -6 -51 -6 -52 -1 -2 -10 -3 -22 -3 -11 0
-18 -4 -14 -9 3 -5 0 -11 -7 -14 -7 -2 -5 -3 4 -2 25 4 54 -31 39 -48 -6 -8
-9 -16 -6 -19 3 -2 1 -19 -4 -36 -5 -18 -6 -32 -1 -32 5 0 11 8 13 18 3 9 4 2
3 -16 -2 -17 -6 -35 -11 -40 -5 -4 -5 -1 0 7 5 9 3 12 -6 9 -19 -6 -24 -55 -7
-75 7 -9 12 -26 11 -37 -1 -12 0 -15 3 -8 8 17 24 15 24 -3 0 -8 7 -15 15 -15
8 0 15 -4 15 -10 0 -5 5 -10 10 -10 6 0 10 8 8 17 -2 11 4 18 17 18 11 1 34 2
52 3 33 2 113 66 113 91 0 7 -11 0 -23 -15 -13 -15 -33 -29 -43 -31 -68 -11
-94 -11 -94 -1 0 6 -6 19 -14 27 -7 9 -16 34 -19 56 l-5 40 11 -37 c6 -21 14
-38 19 -38 11 0 10 18 -4 65 -6 22 -11 44 -10 48 4 16 -19 87 -28 87 -12 0
-12 2 -1 -38 5 -17 6 -32 1 -32 -16 0 -18 65 -3 88 8 13 12 30 9 38 -6 17 6
18 21 3 8 -8 11 -1 11 27 0 35 -1 37 -14 19 -17 -22 -19 -20 -28 24 -6 33 -5
33 12 18 21 -20 32 -22 32 -6 0 5 -5 7 -11 4 -7 -5 -9 3 -6 24 3 17 5 31 4 31
-1 0 -10 -5 -20 -11z m33 -454 c-1 -18 -1 -19 -11 -2 -6 9 -14 15 -20 12 -5
-4 -9 -2 -9 4 0 5 9 9 20 8 13 -1 20 -8 20 -22z m110 11 c0 -2 -7 -7 -16 -10
-8 -3 -12 -2 -9 4 6 10 25 14 25 6z"/>
<path d="M6460 6289 c0 -5 5 -7 10 -4 6 3 10 8 10 11 0 2 -4 4 -10 4 -5 0 -10
-5 -10 -11z"/>
<path d="M6410 6281 c0 -6 5 -13 10 -16 6 -3 10 1 10 9 0 9 -4 16 -10 16 -5 0
-10 -4 -10 -9z"/>
<path d="M6305 6180 c3 -5 8 -10 11 -10 2 0 4 5 4 10 0 6 -5 10 -11 10 -5 0
-7 -4 -4 -10z"/>
<path d="M6250 6147 c0 -19 16 -31 24 -18 3 5 -1 14 -9 21 -12 10 -15 10 -15
-3z"/>
<path d="M6295 6140 c4 -6 11 -8 16 -5 14 9 11 15 -7 15 -8 0 -12 -5 -9 -10z"/>
<path d="M6206 6131 c-4 -7 -5 -15 -2 -18 9 -9 19 4 14 18 -4 11 -6 11 -12 0z"/>
<path d="M6372 6121 c2 -7 7 -12 11 -12 12 1 9 15 -3 20 -7 2 -11 -2 -8 -8z"/>
<path d="M6191 6074 c0 -11 3 -14 6 -6 3 7 2 16 -1 19 -3 4 -6 -2 -5 -13z"/>
<path d="M6233 6035 c1 -23 6 -29 21 -27 22 4 46 26 46 41 0 15 -11 13 -35 -5
-18 -13 -20 -13 -27 3 -5 13 -7 9 -5 -12z"/>
<path d="M6060 6021 c0 -6 4 -13 10 -16 6 -3 7 1 4 9 -7 18 -14 21 -14 7z"/>
<path d="M6182 6005 c-26 -33 -28 -45 -7 -45 9 0 15 10 16 23 1 15 5 10 14
-18 7 -22 11 -54 9 -72 -2 -17 0 -35 6 -38 7 -4 6 -13 -1 -26 -6 -12 -8 -23
-5 -26 3 -4 0 -13 -6 -21 -10 -12 -9 -14 7 -10 11 2 19 10 18 16 -2 7 1 12 6
12 5 0 7 9 4 20 -4 15 -1 18 16 15 13 -2 21 1 21 11 0 8 -5 14 -10 14 -12 0
-1 52 13 61 5 4 5 9 -2 14 -8 4 -9 11 -3 18 13 17 21 57 12 57 -5 0 -12 -4
-15 -10 -12 -19 -55 -11 -64 11 -7 21 -8 21 -29 -6z m58 -45 c0 -5 -2 -10 -4
-10 -3 0 -8 5 -11 10 -3 6 -1 10 4 10 6 0 11 -4 11 -10z m10 -40 c0 -5 -2 -10
-4 -10 -3 0 -8 5 -11 10 -3 6 -1 10 4 10 6 0 11 -4 11 -10z"/>
<path d="M5970 5946 c0 -2 7 -7 16 -10 8 -3 12 -2 9 4 -6 10 -25 14 -25 6z"/>
<path d="M6191 5934 c0 -11 3 -14 6 -6 3 7 2 16 -1 19 -3 4 -6 -2 -5 -13z"/>
<path d="M6081 5914 c0 -11 3 -14 6 -6 3 7 2 16 -1 19 -3 4 -6 -2 -5 -13z"/>
<path d="M6160 5920 c0 -5 5 -10 11 -10 5 0 7 5 4 10 -3 6 -8 10 -11 10 -2 0
-4 -4 -4 -10z"/>
<path d="M6142 5890 c0 -19 2 -27 5 -17 2 9 2 25 0 35 -3 9 -5 1 -5 -18z"/>
<path d="M5950 5899 c0 -5 5 -7 10 -4 6 3 10 8 10 11 0 2 -4 4 -10 4 -5 0 -10
-5 -10 -11z"/>
<path d="M6170 5840 c0 -5 4 -10 9 -10 6 0 13 5 16 10 3 6 -1 10 -9 10 -9 0
-16 -4 -16 -10z"/>
<path d="M6061 5804 c0 -11 3 -14 6 -6 3 7 2 16 -1 19 -3 4 -6 -2 -5 -13z"/>
<path d="M6282 5800 c0 -14 2 -19 5 -12 2 6 2 18 0 25 -3 6 -5 1 -5 -13z"/>
<path d="M6151 5794 c0 -11 3 -14 6 -6 3 7 2 16 -1 19 -3 4 -6 -2 -5 -13z"/>
<path d="M6168 5738 c8 -8 17 -8 34 0 22 10 21 11 -11 11 -27 1 -32 -2 -23
-11z"/>
<path d="M6360 5738 c0 -4 7 -8 15 -8 8 0 15 4 15 8 0 5 -7 9 -15 9 -8 0 -15
-4 -15 -9z"/>
<path d="M6170 5705 c-10 -13 -11 -18 -1 -28 10 -9 11 -8 6 6 -5 12 -2 17 9
17 9 0 16 5 16 10 0 15 -16 12 -30 -5z"/>
<path d="M6093 5695 c0 -8 4 -15 9 -15 4 0 8 7 8 15 0 8 -4 15 -8 15 -5 0 -9
-7 -9 -15z"/>
<path d="M5970 5649 c0 -5 5 -7 10 -4 6 3 10 8 10 11 0 2 -4 4 -10 4 -5 0 -10
-5 -10 -11z"/>
<path d="M5830 5626 c0 -15 -7 -26 -17 -28 -13 -3 -10 -6 9 -9 23 -5 26 -3 22
18 -2 12 0 23 6 23 6 0 8 5 5 10 -11 18 -25 10 -25 -14z"/>
<path d="M5100 5623 c0 -13 5 -23 10 -23 6 0 9 -3 8 -7 -2 -5 5 -19 15 -33 13
-19 17 -20 17 -8 0 18 33 42 44 31 3 -3 6 -1 6 6 0 9 -9 12 -27 8 -22 -4 -33
0 -50 21 -22 27 -22 27 -23 5z"/>
<path d="M6151 5631 c-9 -6 -10 -11 -2 -15 6 -4 11 -3 11 3 0 6 6 8 14 5 8 -3
17 -1 21 5 7 13 -24 14 -44 2z"/>
<path d="M5140 5610 c0 -5 5 -10 10 -10 6 0 10 5 10 10 0 6 -4 10 -10 10 -5 0
-10 -4 -10 -10z"/>
<path d="M5920 5600 c0 -5 5 -10 11 -10 5 0 7 5 4 10 -3 6 -8 10 -11 10 -2 0
-4 -4 -4 -10z"/>
<path d="M6130 5571 c0 -6 9 -9 19 -8 11 0 17 5 15 9 -7 11 -34 10 -34 -1z"/>
<path d="M5113 5540 c3 -13 1 -18 -6 -13 -7 4 -8 0 -4 -11 4 -10 7 -23 8 -29
0 -7 5 -1 10 12 7 19 12 22 22 12 9 -9 9 -16 -1 -31 -6 -11 -12 -25 -12 -32 0
-7 6 -4 12 7 14 23 20 77 8 70 -5 -3 -11 4 -15 15 -8 26 -29 26 -22 0z"/>
<path d="M5930 5550 c0 -5 5 -10 10 -10 6 0 10 5 10 10 0 6 -4 10 -10 10 -5 0
-10 -4 -10 -10z"/>
<path d="M5810 5530 c0 -5 5 -10 10 -10 6 0 10 5 10 10 0 6 -4 10 -10 10 -5 0
-10 -4 -10 -10z"/>
<path d="M6130 5511 c0 -16 5 -33 12 -37 7 -4 8 -3 4 5 -4 6 -4 21 -1 32 6 17
9 19 17 8 8 -12 9 -11 5 1 -2 8 -11 16 -20 18 -13 3 -17 -4 -17 -27z"/>
<path d="M5390 5510 c5 -9 17 -23 26 -31 17 -13 17 -13 1 12 -10 14 -15 28
-12 31 3 2 -2 5 -9 5 -11 0 -12 -5 -6 -17z"/>
<path d="M6080 5501 c-13 -25 -13 -58 0 -66 6 -3 7 1 4 9 -4 10 -1 16 7 16 11
0 11 3 -1 10 -13 9 -13 12 3 21 18 11 23 29 7 29 -5 0 -14 -9 -20 -19z"/>
<path d="M5780 5492 c0 -10 22 -32 32 -32 15 0 8 15 -12 28 -11 7 -20 9 -20 4z"/>
<path d="M5966 5491 c-4 -7 -5 -15 -2 -18 9 -9 19 4 14 18 -4 11 -6 11 -12 0z"/>
<path d="M3300 5459 c0 -5 5 -7 10 -4 6 3 10 8 10 11 0 2 -4 4 -10 4 -5 0 -10
-5 -10 -11z"/>
<path d="M5883 5457 c5 -15 37 -22 37 -9 0 5 -9 12 -21 15 -13 3 -19 1 -16 -6z"/>
<path d="M6115 5418 c8 -38 12 -44 22 -34 4 4 1 16 -6 28 -11 17 -11 22 1 29
10 7 9 9 -5 9 -16 0 -17 -5 -12 -32z"/>
<path d="M6176 5435 c4 -8 10 -15 15 -15 5 0 9 7 9 15 0 8 -7 15 -15 15 -9 0
-12 -6 -9 -15z"/>
<path d="M5175 5420 c-3 -5 -1 -10 4 -10 6 0 11 5 11 10 0 6 -2 10 -4 10 -3 0
-8 -4 -11 -10z"/>
<path d="M5796 5404 c-4 -15 -2 -32 3 -37 6 -6 11 -7 12 -1 0 5 3 21 5 37 6
35 -12 36 -20 1z"/>
<path d="M5860 5411 c0 -12 5 -21 10 -21 6 0 10 6 10 14 0 8 -4 18 -10 21 -5
3 -10 -3 -10 -14z"/>
<path d="M5941 5416 c-9 -10 -9 -16 -1 -21 17 -10 37 12 24 25 -8 8 -15 6 -23
-4z"/>
<path d="M6230 5422 c0 -6 9 -12 20 -15 11 -3 20 -3 20 -1 0 2 -9 8 -20 14
-11 6 -20 7 -20 2z"/>
<path d="M5990 5399 c0 -5 5 -7 10 -4 6 3 10 8 10 11 0 2 -4 4 -10 4 -5 0 -10
-5 -10 -11z"/>
<path d="M5895 5379 c-11 -16 -1 -19 13 -3 7 8 8 14 3 14 -5 0 -13 -5 -16 -11z"/>
<path d="M6044 5324 c11 -24 26 -32 26 -15 0 5 3 16 6 24 4 10 -2 15 -19 15
-22 0 -23 -3 -13 -24z"/>
<path d="M5890 5319 c0 -5 5 -7 10 -4 6 3 10 8 10 11 0 2 -4 4 -10 4 -5 0 -10
-5 -10 -11z"/>
<path d="M6100 5312 c0 -4 10 -13 23 -21 22 -14 22 -14 3 8 -20 22 -26 25 -26
13z"/>
<path d="M5866 5255 c-3 -8 -1 -17 3 -20 5 -3 11 2 15 10 3 8 1 17 -3 20 -5 3
-11 -2 -15 -10z"/>
<path d="M5030 5229 c0 -5 5 -7 10 -4 6 3 10 8 10 11 0 2 -4 4 -10 4 -5 0 -10
-5 -10 -11z"/>
<path d="M5060 5233 c0 -5 4 -14 9 -21 6 -10 10 -9 14 7 3 14 0 21 -9 21 -8 0
-14 -3 -14 -7z"/>
<path d="M5190 5194 c0 -8 5 -12 10 -9 6 3 10 10 10 16 0 5 -4 9 -10 9 -5 0
-10 -7 -10 -16z"/>
<path d="M5925 5190 c3 -5 11 -10 16 -10 6 0 7 5 4 10 -3 6 -11 10 -16 10 -6
0 -7 -4 -4 -10z"/>
<path d="M5905 5159 c-10 -15 3 -25 16 -12 7 7 7 13 1 17 -6 3 -14 1 -17 -5z"/>
<path d="M5962 5163 c-15 -6 -6 -23 14 -23 8 0 14 7 14 15 0 15 -6 17 -28 8z"/>
<path d="M5778 5138 c-10 -10 -13 -18 -7 -18 14 0 41 28 32 33 -5 2 -16 -4
-25 -15z"/>
<path d="M5816 5111 c-16 -17 -15 -18 9 -14 25 5 32 17 16 27 -4 3 -16 -3 -25
-13z"/>
<path d="M5900 5083 c0 -24 3 -33 9 -25 7 12 4 62 -5 62 -2 0 -4 -17 -4 -37z"/>
<path d="M5995 5089 c-4 -6 -5 -12 -2 -15 2 -3 7 2 10 11 7 17 1 20 -8 4z"/>
<path d="M5775 5079 c-10 -15 3 -25 16 -12 7 7 7 13 1 17 -6 3 -14 1 -17 -5z"/>
<path d="M5860 5074 c0 -8 5 -12 10 -9 6 3 10 10 10 16 0 5 -4 9 -10 9 -5 0
-10 -7 -10 -16z"/>
<path d="M5185 5060 c3 -5 8 -10 11 -10 2 0 4 5 4 10 0 6 -5 10 -11 10 -5 0
-7 -4 -4 -10z"/>
<path d="M5753 5036 c7 -14 13 -23 15 -21 7 6 -9 45 -18 45 -4 0 -3 -11 3 -24z"/>
<path d="M5953 5043 c9 -2 23 -2 30 0 6 3 -1 5 -18 5 -16 0 -22 -2 -12 -5z"/>
<path d="M5825 5030 c3 -5 8 -10 11 -10 2 0 4 5 4 10 0 6 -5 10 -11 10 -5 0
-7 -4 -4 -10z"/>
<path d="M5843 5009 c-6 -6 -9 -18 -6 -26 3 -7 2 -13 -3 -12 -19 3 -32 -2 -52
-20 -28 -23 -28 -41 -2 -34 11 3 20 11 20 19 0 18 18 27 54 26 30 -1 30 0 11
15 -14 11 -16 17 -7 20 13 5 17 23 4 23 -4 0 -13 -5 -19 -11z"/>
<path d="M4520 4840 c0 -11 5 -20 10 -20 6 0 10 9 10 20 0 11 -4 20 -10 20 -5
0 -10 -9 -10 -20z"/>
<path d="M5688 4853 c7 -3 16 -2 19 1 4 3 -2 6 -13 5 -11 0 -14 -3 -6 -6z"/>
<path d="M5582 4798 c2 -6 10 -14 16 -16 7 -2 10 2 6 12 -7 18 -28 22 -22 4z"/>
<path d="M4650 4750 c0 -5 5 -10 10 -10 6 0 10 5 10 10 0 6 -4 10 -10 10 -5 0
-10 -4 -10 -10z"/>
<path d="M6205 4713 c45 -118 50 -147 49 -313 0 -192 -18 -324 -70 -520 -19
-74 -42 -160 -50 -190 -16 -64 -19 -240 -4 -240 16 0 12 -41 -9 -106 -13 -37
-16 -63 -10 -69 6 -5 9 -4 9 4 0 7 5 9 10 6 6 -4 10 6 11 22 1 27 1 27 11 -7
9 -30 4 -633 -7 -815 -1 -27 -5 -178 -9 -335 -15 -675 -24 -952 -36 -1095 -5
-60 -12 -150 -15 -200 -4 -49 -8 -92 -10 -95 -1 -3 -6 -59 -9 -125 -4 -66 -8
-145 -11 -175 -2 -30 -7 -93 -10 -140 -9 -139 -15 -222 -21 -272 l-6 -48 1992
0 1992 0 -4 528 c-5 525 -5 527 -31 632 -28 115 -119 394 -147 450 -9 19 -43
109 -75 200 -92 263 -174 489 -206 564 -16 37 -29 72 -29 77 0 6 -36 100 -80
210 -44 110 -87 228 -96 262 -25 99 -112 375 -145 462 -55 143 -138 264 -196
286 -27 10 -63 4 -63 -12 0 -15 -19 -11 -48 11 -15 11 -82 38 -149 60 -67 22
-148 51 -180 66 -104 46 -226 92 -318 118 -49 14 -180 59 -290 102 -335 128
-503 183 -686 223 -162 37 -306 70 -524 124 -64 15 -112 35 -165 68 -41 25
-103 60 -137 78 -82 44 -135 91 -184 162 -39 59 -57 75 -44 42z m1960 -3643
c3 -5 1 -10 -4 -10 -6 0 -11 5 -11 10 0 6 2 10 4 10 3 0 8 -4 11 -10z m-75
-50 c0 -5 -2 -10 -4 -10 -3 0 -8 5 -11 10 -3 6 -1 10 4 10 6 0 11 -4 11 -10z
m-33 -16 c-3 -3 -12 -4 -19 -1 -8 3 -5 6 6 6 11 1 17 -2 13 -5z m-114 -64 c-6
-22 -11 -24 -33 -10 -13 8 -12 10 3 10 9 0 17 5 17 10 0 6 4 10 9 10 5 0 7 -9
4 -20z m-178 -69 c-3 -6 -11 -8 -17 -5 -6 4 -5 9 3 15 16 10 23 4 14 -10z
m-185 -61 c0 -5 -4 -10 -10 -10 -5 0 -10 5 -10 10 0 6 5 10 10 10 6 0 10 -4
10 -10z"/>
<path d="M6098 4630 c-3 -8 -10 -42 -17 -75 -6 -34 -18 -66 -28 -74 -17 -13
-17 -13 0 -8 15 6 16 2 11 -21 -9 -36 -23 -63 -24 -43 0 8 -3 11 -6 8 -4 -4
-2 -13 5 -21 9 -11 8 -23 -3 -52 -8 -22 -17 -55 -20 -75 -4 -19 -15 -53 -26
-74 -11 -22 -20 -45 -20 -52 0 -7 -5 -13 -10 -13 -6 0 -8 -10 -5 -23 4 -15 1
-28 -9 -36 -9 -7 -13 -18 -9 -24 3 -5 -3 -28 -14 -51 -12 -23 -27 -53 -34 -68
-7 -16 -18 -28 -26 -28 -7 0 -13 -5 -13 -11 0 -5 5 -7 10 -4 13 8 13 -15 0
-35 -8 -13 -10 -13 -10 2 0 9 -5 20 -12 24 -8 5 -9 2 -5 -10 4 -10 0 -24 -9
-33 -8 -9 -13 -24 -11 -35 4 -14 -3 -23 -26 -33 -18 -8 -22 -12 -9 -9 30 7 28
-6 -5 -32 l-28 -22 28 5 c27 5 28 4 16 -15 -7 -11 -23 -26 -36 -33 -25 -14
-30 -38 -11 -57 8 -8 9 -12 1 -12 -6 0 -19 7 -28 16 -23 23 -32 8 -10 -16 17
-19 17 -21 -1 -47 -10 -16 -18 -34 -19 -41 0 -7 -7 -17 -15 -22 -13 -8 -12
-10 3 -10 26 0 20 -17 -8 -24 -14 -4 -23 -11 -20 -16 8 -13 -21 -67 -42 -79
-16 -9 -16 -10 4 -11 16 0 25 8 29 25 3 14 9 25 13 25 14 0 121 112 115 121
-3 5 -1 9 5 9 6 0 13 11 17 25 3 13 12 29 20 36 8 6 14 22 14 35 0 13 7 27 16
32 9 5 42 90 79 199 35 105 69 201 75 213 18 33 50 155 50 189 0 16 11 66 24
112 34 117 48 197 44 244 -2 22 -6 33 -10 25z"/>
<path d="M5176 4615 c-9 -26 -7 -32 5 -12 6 10 9 21 6 23 -2 3 -7 -2 -11 -11z"/>
<path d="M5855 4180 c-3 -5 -1 -10 4 -10 6 0 11 5 11 10 0 6 -2 10 -4 10 -3 0
-8 -4 -11 -10z"/>
<path d="M5730 3930 c0 -5 5 -10 10 -10 6 0 10 5 10 10 0 6 -4 10 -10 10 -5 0
-10 -4 -10 -10z"/>
<path d="M5693 3730 c-13 -5 -23 -17 -23 -26 0 -16 1 -16 19 0 10 9 32 21 47
26 28 8 28 8 4 9 -14 0 -35 -4 -47 -9z"/>
<path d="M5565 3720 c-3 -5 1 -10 9 -10 8 0 18 5 21 10 3 6 -1 10 -9 10 -8 0
-18 -4 -21 -10z"/>
<path d="M5985 3700 c4 -6 -5 -23 -19 -37 -14 -14 -26 -30 -26 -35 0 -5 -15
-32 -33 -61 -61 -95 -96 -167 -91 -182 4 -9 1 -15 -7 -15 -10 0 -10 -3 -1 -12
10 -10 15 -10 22 2 6 9 8 -15 5 -65 -3 -68 -2 -73 6 -35 26 131 32 151 47 167
9 9 15 26 14 38 -3 21 17 35 55 39 15 1 53 68 53 91 0 8 5 15 10 15 6 0 10 8
11 18 0 12 3 10 10 -7 5 -13 12 -22 14 -19 3 3 1 17 -5 32 -5 15 -8 31 -5 36
3 5 -9 16 -26 24 -38 19 -42 20 -34 6z"/>
<path d="M5520 3690 c0 -5 -6 -10 -14 -10 -7 0 -16 -9 -19 -20 -5 -18 -4 -18
24 2 29 22 37 38 19 38 -5 0 -10 -4 -10 -10z"/>
<path d="M5600 3620 c0 -5 5 -10 10 -10 6 0 10 5 10 10 0 6 -4 10 -10 10 -5 0
-10 -4 -10 -10z"/>
<path d="M6025 3590 c3 -5 8 -10 11 -10 2 0 4 5 4 10 0 6 -5 10 -11 10 -5 0
-7 -4 -4 -10z"/>
<path d="M5445 3580 c-3 -5 -1 -10 4 -10 6 0 11 5 11 10 0 6 -2 10 -4 10 -3 0
-8 -4 -11 -10z"/>
<path d="M5666 3581 c-4 -5 -2 -12 3 -15 5 -4 12 -2 15 3 4 5 2 12 -3 15 -5 4
-12 2 -15 -3z"/>
<path d="M5356 3534 c-4 -10 -1 -14 6 -12 15 5 23 28 10 28 -5 0 -13 -7 -16
-16z"/>
<path d="M4441 3517 c-5 -14 -15 -28 -20 -32 -6 -3 -11 -11 -11 -16 0 -6 5 -7
10 -4 14 9 43 66 36 72 -3 3 -10 -6 -15 -20z"/>
<path d="M5261 3521 c-8 -5 -9 -11 -3 -15 5 -3 12 1 16 9 6 17 6 18 -13 6z"/>
<path d="M5290 3526 c0 -2 9 -6 20 -9 11 -3 18 -1 14 4 -5 9 -34 13 -34 5z"/>
<path d="M4190 3480 c0 -5 5 -10 11 -10 5 0 7 5 4 10 -3 6 -8 10 -11 10 -2 0
-4 -4 -4 -10z"/>
<path d="M5250 3460 c0 -5 7 -10 16 -10 8 0 12 5 9 10 -3 6 -10 10 -16 10 -5
0 -9 -4 -9 -10z"/>
<path d="M5102 3445 c-11 -12 -10 -15 3 -15 8 0 15 7 15 15 0 18 -2 18 -18 0z"/>
<path d="M5168 3443 c6 -2 12 -11 12 -19 0 -18 26 -18 33 0 4 9 -3 16 -16 20
-26 7 -47 7 -29 -1z"/>
<path d="M5240 3410 c0 -5 5 -10 11 -10 5 0 7 5 4 10 -3 6 -8 10 -11 10 -2 0
-4 -4 -4 -10z"/>
<path d="M5026 3391 c-3 -5 1 -11 9 -15 8 -3 15 -1 15 4 0 13 -18 22 -24 11z"/>
<path d="M5079 3398 c-5 -17 -4 -48 3 -48 4 0 8 11 8 25 0 20 -7 34 -11 23z"/>
<path d="M5563 3294 c-3 -8 -12 -13 -19 -10 -8 3 -11 0 -8 -9 7 -18 31 -8 37
16 6 23 -1 26 -10 3z"/>
<path d="M4250 3271 c0 -16 5 -33 10 -36 6 -4 10 5 10 19 0 14 0 29 1 33 0 4
-4 9 -10 11 -6 2 -11 -9 -11 -27z"/>
<path d="M6131 3254 c0 -11 3 -14 6 -6 3 7 2 16 -1 19 -3 4 -6 -2 -5 -13z"/>
<path d="M4231 3244 c0 -11 3 -14 6 -6 3 7 2 16 -1 19 -3 4 -6 -2 -5 -13z"/>
<path d="M4286 3222 c4 -25 2 -42 -5 -46 -6 -4 -11 -18 -11 -32 0 -17 5 -24
20 -24 11 0 20 7 20 15 0 8 5 15 11 15 15 0 8 -60 -11 -90 -9 -14 -15 -33 -12
-42 4 -19 37 -24 47 -8 4 6 12 4 22 -5 9 -9 22 -14 30 -11 11 4 11 1 3 -14 -9
-16 -8 -18 5 -14 10 4 15 2 13 -6 -2 -7 3 -15 10 -17 20 -7 4 107 -19 132 -9
11 -30 49 -45 84 -15 35 -30 59 -32 53 -7 -21 -21 -13 -24 15 -2 14 -9 28 -16
31 -9 3 -11 -6 -6 -36z m74 -122 c0 -5 -4 -10 -10 -10 -5 0 -10 5 -10 10 0 6
5 10 10 10 6 0 10 -4 10 -10z"/>
<path d="M5533 3199 c-18 -5 -33 -12 -33 -15 0 -8 63 6 75 17 11 11 1 10 -42
-2z"/>
<path d="M5450 3061 c0 -6 4 -13 10 -16 6 -3 7 1 4 9 -7 18 -14 21 -14 7z"/>
<path d="M5464 3006 c-3 -14 -11 -26 -16 -26 -6 0 -7 -7 -4 -16 3 -8 2 -13 -2
-11 -12 8 -54 -12 -47 -23 3 -5 -3 -10 -14 -10 -12 0 -21 -4 -21 -10 0 -5 -7
-10 -15 -10 -9 0 -15 -9 -15 -22 0 -18 -2 -20 -10 -8 -7 12 -11 10 -19 -10 -9
-23 -10 -23 -10 -4 -1 12 6 25 15 28 8 3 13 10 9 15 -3 6 -12 8 -21 4 -8 -3
-13 -8 -10 -11 3 -2 1 -12 -4 -22 -7 -13 -2 -33 18 -74 15 -30 30 -56 34 -56
8 0 134 203 130 213 -1 4 3 7 8 7 6 0 10 8 10 18 0 14 2 15 10 2 8 -12 10 -11
10 6 0 12 -7 27 -15 34 -12 10 -15 7 -21 -14z"/>
<path d="M5811 2944 c0 -11 3 -14 6 -6 3 7 2 16 -1 19 -3 4 -6 -2 -5 -13z"/>
<path d="M4397 2916 c-4 -10 -1 -13 9 -9 15 6 19 23 5 23 -5 0 -11 -7 -14 -14z"/>
<path d="M5246 2884 c18 -26 28 -27 18 -1 -3 8 -12 18 -20 21 -11 4 -11 0 2
-20z"/>
<path d="M276 1477 c-3 -14 -9 -33 -12 -44 -3 -10 4 -3 16 15 15 22 19 37 13
43 -7 7 -12 2 -17 -14z"/>
<path d="M284 1426 c-3 -8 -4 -23 -2 -33 3 -11 6 -6 9 15 6 34 2 42 -7 18z"/>
<path d="M5490 450 c0 -6 7 -10 15 -10 8 0 15 2 15 4 0 2 -7 6 -15 10 -8 3
-15 1 -15 -4z"/>
<path d="M5538 443 c6 -2 18 -2 25 0 6 3 1 5 -13 5 -14 0 -19 -2 -12 -5z"/>
<path d="M6001 64 c0 -11 3 -14 6 -6 3 7 2 16 -1 19 -3 4 -6 -2 -5 -13z"/>
</g>
</svg>
